<svg xmlns="http://www.w3.org/2000/svg" xmlns:xlink="http://www.w3.org/1999/xlink" width="347" zoomAndPan="magnify" viewBox="0 0 260.25 360.749994" height="481" preserveAspectRatio="xMidYMid meet" version="1.0"><defs><g/><clipPath id="6f4553f671"><path d="M 0 0.394531 L 259.503906 0.394531 L 259.503906 360.105469 L 0 360.105469 Z M 0 0.394531 " clip-rule="nonzero"/></clipPath></defs><g clip-path="url(#6f4553f671)"><path fill="#ffffff" d="M 0 0.394531 L 259.503906 0.394531 L 259.503906 360.105469 L 0 360.105469 Z M 0 0.394531 " fill-opacity="1" fill-rule="nonzero"/></g><g fill="#cbc7b7" fill-opacity="1"><g transform="translate(39.872178, 305.378804)"><g><path d="M 1.328125 -24.015625 C 2.046875 -24.015625 2.617188 -24.003906 3.046875 -23.984375 C 3.484375 -23.972656 3.851562 -23.957031 4.15625 -23.9375 C 4.46875 -23.914062 4.753906 -23.898438 5.015625 -23.890625 C 5.285156 -23.878906 5.625 -23.875 6.03125 -23.875 C 6.414062 -23.875 6.742188 -23.878906 7.015625 -23.890625 C 7.285156 -23.898438 7.578125 -23.914062 7.890625 -23.9375 C 8.203125 -23.957031 8.570312 -23.972656 9 -23.984375 C 9.4375 -24.003906 10.015625 -24.015625 10.734375 -24.015625 L 10.734375 -23.65625 C 10.347656 -23.65625 9.976562 -23.625 9.625 -23.5625 C 9.28125 -23.5 8.976562 -23.382812 8.71875 -23.21875 C 8.457031 -23.050781 8.25 -22.816406 8.09375 -22.515625 C 7.9375 -22.222656 7.859375 -21.820312 7.859375 -21.3125 L 7.859375 -2.6875 C 7.859375 -2.1875 7.9375 -1.785156 8.09375 -1.484375 C 8.25 -1.191406 8.457031 -0.957031 8.71875 -0.78125 C 8.976562 -0.613281 9.28125 -0.5 9.625 -0.4375 C 9.976562 -0.382812 10.347656 -0.359375 10.734375 -0.359375 L 10.734375 0 C 10.015625 0 9.4375 -0.00390625 9 -0.015625 C 8.570312 -0.0234375 8.203125 -0.0390625 7.890625 -0.0625 C 7.578125 -0.09375 7.285156 -0.113281 7.015625 -0.125 C 6.742188 -0.132812 6.414062 -0.140625 6.03125 -0.140625 C 5.625 -0.140625 5.285156 -0.132812 5.015625 -0.125 C 4.753906 -0.113281 4.46875 -0.09375 4.15625 -0.0625 C 3.851562 -0.0390625 3.484375 -0.0234375 3.046875 -0.015625 C 2.617188 -0.00390625 2.046875 0 1.328125 0 L 1.328125 -0.359375 C 1.710938 -0.359375 2.078125 -0.382812 2.421875 -0.4375 C 2.765625 -0.5 3.066406 -0.613281 3.328125 -0.78125 C 3.597656 -0.957031 3.8125 -1.191406 3.96875 -1.484375 C 4.125 -1.785156 4.203125 -2.1875 4.203125 -2.6875 L 4.203125 -21.3125 C 4.203125 -21.820312 4.125 -22.222656 3.96875 -22.515625 C 3.8125 -22.816406 3.597656 -23.050781 3.328125 -23.21875 C 3.066406 -23.382812 2.765625 -23.5 2.421875 -23.5625 C 2.078125 -23.625 1.710938 -23.65625 1.328125 -23.65625 Z M 1.328125 -24.015625 "/></g></g></g><g fill="#cbc7b7" fill-opacity="1"><g transform="translate(51.933446, 305.378804)"><g><path d="M 1.6875 -0.359375 C 2.070312 -0.359375 2.4375 -0.382812 2.78125 -0.4375 C 3.125 -0.5 3.425781 -0.613281 3.6875 -0.78125 C 3.957031 -0.957031 4.171875 -1.191406 4.328125 -1.484375 C 4.484375 -1.785156 4.5625 -2.1875 4.5625 -2.6875 L 4.5625 -21.140625 L 3.765625 -22.140625 C 3.429688 -22.578125 3.066406 -22.9375 2.671875 -23.21875 C 2.273438 -23.507812 1.769531 -23.65625 1.15625 -23.65625 L 1.15625 -24.015625 C 1.582031 -24.015625 1.953125 -24.003906 2.265625 -23.984375 C 2.578125 -23.972656 2.859375 -23.960938 3.109375 -23.953125 C 3.359375 -23.941406 3.582031 -23.929688 3.78125 -23.921875 C 3.988281 -23.910156 4.222656 -23.90625 4.484375 -23.90625 C 4.722656 -23.90625 4.925781 -23.910156 5.09375 -23.921875 C 5.257812 -23.929688 5.425781 -23.941406 5.59375 -23.953125 C 5.757812 -23.960938 5.9375 -23.972656 6.125 -23.984375 C 6.320312 -24.003906 6.566406 -24.015625 6.859375 -24.015625 L 21.78125 -5.640625 L 21.78125 -21.3125 C 21.78125 -21.820312 21.703125 -22.222656 21.546875 -22.515625 C 21.390625 -22.816406 21.179688 -23.050781 20.921875 -23.21875 C 20.660156 -23.382812 20.351562 -23.5 20 -23.5625 C 19.65625 -23.625 19.296875 -23.65625 18.921875 -23.65625 L 18.921875 -24.015625 C 19.390625 -24.015625 19.769531 -24.003906 20.0625 -23.984375 C 20.351562 -23.972656 20.601562 -23.960938 20.8125 -23.953125 C 21.03125 -23.941406 21.234375 -23.929688 21.421875 -23.921875 C 21.617188 -23.910156 21.847656 -23.90625 22.109375 -23.90625 C 22.367188 -23.90625 22.59375 -23.910156 22.78125 -23.921875 C 22.976562 -23.929688 23.179688 -23.941406 23.390625 -23.953125 C 23.609375 -23.960938 23.867188 -23.972656 24.171875 -23.984375 C 24.472656 -24.003906 24.863281 -24.015625 25.34375 -24.015625 L 25.34375 -23.65625 C 24.957031 -23.65625 24.585938 -23.625 24.234375 -23.5625 C 23.890625 -23.5 23.585938 -23.382812 23.328125 -23.21875 C 23.066406 -23.050781 22.859375 -22.816406 22.703125 -22.515625 C 22.546875 -22.222656 22.46875 -21.820312 22.46875 -21.3125 L 22.46875 0.4375 L 21.828125 0.4375 L 5.234375 -20.34375 L 5.234375 -2.6875 C 5.234375 -2.1875 5.3125 -1.785156 5.46875 -1.484375 C 5.625 -1.191406 5.832031 -0.957031 6.09375 -0.78125 C 6.363281 -0.613281 6.671875 -0.5 7.015625 -0.4375 C 7.359375 -0.382812 7.722656 -0.359375 8.109375 -0.359375 L 8.109375 0 C 7.628906 0 7.238281 -0.00390625 6.9375 -0.015625 C 6.644531 -0.0234375 6.390625 -0.0351562 6.171875 -0.046875 C 5.953125 -0.0664062 5.75 -0.0820312 5.5625 -0.09375 C 5.375 -0.101562 5.144531 -0.109375 4.875 -0.109375 C 4.613281 -0.109375 4.382812 -0.101562 4.1875 -0.09375 C 4 -0.0820312 3.796875 -0.0664062 3.578125 -0.046875 C 3.367188 -0.0351562 3.117188 -0.0234375 2.828125 -0.015625 C 2.546875 -0.00390625 2.164062 0 1.6875 0 Z M 1.6875 -0.359375 "/></g></g></g><g fill="#cbc7b7" fill-opacity="1"><g transform="translate(78.425154, 305.378804)"><g><path d="M 6.390625 -0.359375 C 6.773438 -0.359375 7.140625 -0.382812 7.484375 -0.4375 C 7.828125 -0.5 8.128906 -0.613281 8.390625 -0.78125 C 8.660156 -0.957031 8.875 -1.191406 9.03125 -1.484375 C 9.1875 -1.785156 9.265625 -2.1875 9.265625 -2.6875 L 9.265625 -23.328125 C 7.898438 -23.378906 6.914062 -23.414062 6.3125 -23.4375 C 5.71875 -23.457031 5.359375 -23.46875 5.234375 -23.46875 C 3.828125 -23.445312 2.804688 -23.007812 2.171875 -22.15625 C 1.535156 -21.3125 1.171875 -20.207031 1.078125 -18.84375 L 0.71875 -18.84375 L 0.890625 -24.078125 C 1.441406 -24.109375 1.953125 -24.125 2.421875 -24.125 C 2.890625 -24.125 3.328125 -24.125 3.734375 -24.125 C 4.691406 -24.125 5.53125 -24.109375 6.25 -24.078125 C 6.96875 -24.054688 7.609375 -24.039062 8.171875 -24.03125 C 8.734375 -24.019531 9.238281 -24 9.6875 -23.96875 C 10.144531 -23.945312 10.597656 -23.9375 11.046875 -23.9375 C 11.503906 -23.9375 11.957031 -23.945312 12.40625 -23.96875 C 12.863281 -24 13.378906 -24.019531 13.953125 -24.03125 C 14.535156 -24.039062 15.191406 -24.054688 15.921875 -24.078125 C 16.648438 -24.109375 17.515625 -24.125 18.515625 -24.125 C 18.953125 -24.125 19.40625 -24.125 19.875 -24.125 C 20.351562 -24.125 20.867188 -24.109375 21.421875 -24.078125 L 21.640625 -18.84375 L 21.28125 -18.84375 C 21.238281 -19.4375 21.128906 -20.015625 20.953125 -20.578125 C 20.785156 -21.140625 20.535156 -21.640625 20.203125 -22.078125 C 19.867188 -22.523438 19.441406 -22.878906 18.921875 -23.140625 C 18.410156 -23.410156 17.796875 -23.546875 17.078125 -23.546875 C 16.960938 -23.546875 16.582031 -23.523438 15.9375 -23.484375 C 15.289062 -23.453125 14.285156 -23.398438 12.921875 -23.328125 L 12.921875 -2.6875 C 12.921875 -2.1875 13 -1.785156 13.15625 -1.484375 C 13.3125 -1.191406 13.519531 -0.957031 13.78125 -0.78125 C 14.039062 -0.613281 14.34375 -0.5 14.6875 -0.4375 C 15.039062 -0.382812 15.410156 -0.359375 15.796875 -0.359375 L 15.796875 0 C 15.078125 0 14.5 -0.00390625 14.0625 -0.015625 C 13.632812 -0.0234375 13.265625 -0.0390625 12.953125 -0.0625 C 12.640625 -0.09375 12.347656 -0.113281 12.078125 -0.125 C 11.804688 -0.132812 11.476562 -0.140625 11.09375 -0.140625 C 10.6875 -0.140625 10.347656 -0.132812 10.078125 -0.125 C 9.816406 -0.113281 9.53125 -0.09375 9.21875 -0.0625 C 8.90625 -0.0390625 8.535156 -0.0234375 8.109375 -0.015625 C 7.679688 -0.00390625 7.109375 0 6.390625 0 Z M 6.390625 -0.359375 "/></g></g></g><g fill="#cbc7b7" fill-opacity="1"><g transform="translate(100.788756, 305.378804)"><g><path d="M 10.296875 -12.734375 C 11.378906 -12.734375 12.175781 -13.003906 12.6875 -13.546875 C 13.195312 -14.085938 13.453125 -14.847656 13.453125 -15.828125 L 13.8125 -15.828125 C 13.8125 -15.273438 13.804688 -14.816406 13.796875 -14.453125 C 13.785156 -14.097656 13.773438 -13.800781 13.765625 -13.5625 C 13.753906 -13.320312 13.738281 -13.117188 13.71875 -12.953125 C 13.707031 -12.785156 13.703125 -12.609375 13.703125 -12.421875 C 13.703125 -12.222656 13.707031 -12.046875 13.71875 -11.890625 C 13.738281 -11.742188 13.753906 -11.554688 13.765625 -11.328125 C 13.773438 -11.097656 13.785156 -10.804688 13.796875 -10.453125 C 13.804688 -10.109375 13.8125 -9.660156 13.8125 -9.109375 L 13.453125 -9.109375 C 13.453125 -10.046875 13.195312 -10.78125 12.6875 -11.3125 C 12.175781 -11.851562 11.378906 -12.125 10.296875 -12.125 L 7.859375 -12.125 L 7.859375 -4.34375 C 7.859375 -3.476562 7.9375 -2.785156 8.09375 -2.265625 C 8.25 -1.753906 8.523438 -1.375 8.921875 -1.125 C 9.316406 -0.875 9.835938 -0.710938 10.484375 -0.640625 C 11.128906 -0.566406 11.941406 -0.53125 12.921875 -0.53125 C 13.785156 -0.53125 14.59375 -0.5625 15.34375 -0.625 C 16.09375 -0.6875 16.753906 -0.859375 17.328125 -1.140625 C 17.910156 -1.429688 18.382812 -1.878906 18.75 -2.484375 C 19.125 -3.097656 19.359375 -3.945312 19.453125 -5.03125 L 19.84375 -5.03125 L 19.5625 0 C 18.476562 0.0195312 17.519531 0.0351562 16.6875 0.046875 C 15.851562 0.0664062 14.945312 0.078125 13.96875 0.078125 C 11.925781 0.078125 10.28125 0.046875 9.03125 -0.015625 C 7.789062 -0.078125 6.789062 -0.109375 6.03125 -0.109375 C 5.644531 -0.109375 5.3125 -0.101562 5.03125 -0.09375 C 4.757812 -0.0820312 4.46875 -0.0664062 4.15625 -0.046875 C 3.851562 -0.0351562 3.484375 -0.0234375 3.046875 -0.015625 C 2.617188 -0.00390625 2.046875 0 1.328125 0 L 1.328125 -0.359375 C 1.710938 -0.359375 2.078125 -0.382812 2.421875 -0.4375 C 2.765625 -0.5 3.066406 -0.613281 3.328125 -0.78125 C 3.597656 -0.957031 3.8125 -1.191406 3.96875 -1.484375 C 4.125 -1.785156 4.203125 -2.1875 4.203125 -2.6875 L 4.203125 -21.3125 C 4.203125 -21.820312 4.125 -22.222656 3.96875 -22.515625 C 3.8125 -22.816406 3.597656 -23.050781 3.328125 -23.21875 C 3.066406 -23.382812 2.765625 -23.5 2.421875 -23.5625 C 2.078125 -23.625 1.710938 -23.65625 1.328125 -23.65625 L 1.328125 -24.015625 C 2.046875 -24.015625 2.613281 -24.003906 3.03125 -23.984375 C 3.445312 -23.972656 3.804688 -23.960938 4.109375 -23.953125 C 4.410156 -23.941406 4.691406 -23.929688 4.953125 -23.921875 C 5.210938 -23.910156 5.535156 -23.90625 5.921875 -23.90625 C 6.734375 -23.90625 7.71875 -23.941406 8.875 -24.015625 C 10.039062 -24.085938 11.34375 -24.125 12.78125 -24.125 C 13.707031 -24.125 14.546875 -24.109375 15.296875 -24.078125 C 16.054688 -24.054688 16.914062 -24.035156 17.875 -24.015625 L 18.09375 -19.34375 L 17.734375 -19.34375 C 17.660156 -20.25 17.46875 -20.976562 17.15625 -21.53125 C 16.84375 -22.082031 16.421875 -22.5 15.890625 -22.78125 C 15.367188 -23.070312 14.757812 -23.265625 14.0625 -23.359375 C 13.375 -23.460938 12.609375 -23.515625 11.765625 -23.515625 C 11.554688 -23.515625 11.304688 -23.503906 11.015625 -23.484375 C 10.734375 -23.472656 10.445312 -23.460938 10.15625 -23.453125 C 9.863281 -23.441406 9.585938 -23.421875 9.328125 -23.390625 C 9.066406 -23.367188 8.851562 -23.347656 8.6875 -23.328125 C 8.132812 -23.253906 7.859375 -22.929688 7.859375 -22.359375 L 7.859375 -12.734375 Z M 10.296875 -12.734375 "/></g></g></g><g fill="#cbc7b7" fill-opacity="1"><g transform="translate(121.536998, 305.378804)"><g><path d="M 1.328125 -24.015625 C 2.046875 -24.015625 2.617188 -24.003906 3.046875 -23.984375 C 3.484375 -23.972656 3.847656 -23.96875 4.140625 -23.96875 C 4.441406 -23.96875 4.722656 -23.960938 4.984375 -23.953125 C 5.253906 -23.941406 5.578125 -23.9375 5.953125 -23.9375 C 6.578125 -23.9375 7.300781 -23.96875 8.125 -24.03125 C 8.957031 -24.09375 9.875 -24.125 10.875 -24.125 C 11.8125 -24.125 12.785156 -24.050781 13.796875 -23.90625 C 14.816406 -23.757812 15.75 -23.46875 16.59375 -23.03125 C 17.445312 -22.601562 18.148438 -21.988281 18.703125 -21.1875 C 19.253906 -20.382812 19.53125 -19.328125 19.53125 -18.015625 C 19.53125 -17.128906 19.347656 -16.328125 18.984375 -15.609375 C 18.628906 -14.890625 18.15625 -14.265625 17.5625 -13.734375 C 16.976562 -13.210938 16.304688 -12.78125 15.546875 -12.4375 C 14.796875 -12.09375 14.03125 -11.859375 13.25 -11.734375 C 13.488281 -11.421875 13.90625 -10.90625 14.5 -10.1875 C 15.09375 -9.46875 15.757812 -8.660156 16.5 -7.765625 C 17.25 -6.867188 18.023438 -5.945312 18.828125 -5 C 19.628906 -4.0625 20.351562 -3.21875 21 -2.46875 C 21.550781 -1.851562 22.070312 -1.347656 22.5625 -0.953125 C 23.050781 -0.554688 23.59375 -0.359375 24.1875 -0.359375 L 24.1875 0 C 23.664062 0 23.242188 -0.00390625 22.921875 -0.015625 C 22.597656 -0.0234375 22.328125 -0.0351562 22.109375 -0.046875 C 21.890625 -0.0664062 21.6875 -0.0820312 21.5 -0.09375 C 21.3125 -0.101562 21.070312 -0.109375 20.78125 -0.109375 C 20.488281 -0.109375 20.238281 -0.101562 20.03125 -0.09375 C 19.832031 -0.0820312 19.644531 -0.0664062 19.46875 -0.046875 C 19.289062 -0.0351562 19.09375 -0.0234375 18.875 -0.015625 C 18.664062 -0.00390625 18.390625 0 18.046875 0 C 17.304688 -0.9375 16.625 -1.816406 16 -2.640625 C 15.382812 -3.460938 14.773438 -4.269531 14.171875 -5.0625 C 13.578125 -5.851562 12.96875 -6.648438 12.34375 -7.453125 C 11.71875 -8.253906 11.050781 -9.109375 10.34375 -10.015625 C 9.976562 -10.472656 9.664062 -10.789062 9.40625 -10.96875 C 9.144531 -11.144531 8.738281 -11.234375 8.1875 -11.234375 L 7.859375 -11.234375 L 7.859375 -2.6875 C 7.859375 -2.1875 7.9375 -1.785156 8.09375 -1.484375 C 8.25 -1.191406 8.457031 -0.957031 8.71875 -0.78125 C 8.976562 -0.613281 9.28125 -0.5 9.625 -0.4375 C 9.976562 -0.382812 10.347656 -0.359375 10.734375 -0.359375 L 10.734375 0 C 10.015625 0 9.4375 -0.00390625 9 -0.015625 C 8.570312 -0.0234375 8.203125 -0.0390625 7.890625 -0.0625 C 7.578125 -0.09375 7.285156 -0.113281 7.015625 -0.125 C 6.742188 -0.132812 6.414062 -0.140625 6.03125 -0.140625 C 5.625 -0.140625 5.285156 -0.132812 5.015625 -0.125 C 4.753906 -0.113281 4.46875 -0.09375 4.15625 -0.0625 C 3.851562 -0.0390625 3.484375 -0.0234375 3.046875 -0.015625 C 2.617188 -0.00390625 2.046875 0 1.328125 0 L 1.328125 -0.359375 C 1.710938 -0.359375 2.078125 -0.382812 2.421875 -0.4375 C 2.765625 -0.5 3.066406 -0.613281 3.328125 -0.78125 C 3.597656 -0.957031 3.8125 -1.191406 3.96875 -1.484375 C 4.125 -1.785156 4.203125 -2.1875 4.203125 -2.6875 L 4.203125 -21.3125 C 4.203125 -21.820312 4.125 -22.222656 3.96875 -22.515625 C 3.8125 -22.816406 3.597656 -23.050781 3.328125 -23.21875 C 3.066406 -23.382812 2.765625 -23.5 2.421875 -23.5625 C 2.078125 -23.625 1.710938 -23.65625 1.328125 -23.65625 Z M 7.859375 -11.875 L 9.65625 -11.875 C 11.59375 -11.875 13.039062 -12.398438 14 -13.453125 C 14.957031 -14.503906 15.4375 -16.050781 15.4375 -18.09375 C 15.4375 -18.832031 15.316406 -19.523438 15.078125 -20.171875 C 14.835938 -20.816406 14.488281 -21.382812 14.03125 -21.875 C 13.570312 -22.363281 13.007812 -22.75 12.34375 -23.03125 C 11.675781 -23.320312 10.921875 -23.46875 10.078125 -23.46875 C 9.890625 -23.46875 9.664062 -23.460938 9.40625 -23.453125 C 9.144531 -23.441406 8.898438 -23.390625 8.671875 -23.296875 C 8.441406 -23.203125 8.25 -23.0625 8.09375 -22.875 C 7.9375 -22.695312 7.859375 -22.453125 7.859375 -22.140625 Z M 7.859375 -11.875 "/></g></g></g><g fill="#cbc7b7" fill-opacity="1"><g transform="translate(145.37236, 305.378804)"><g><path d="M 1.328125 -24.015625 C 2.046875 -24.015625 2.617188 -24.003906 3.046875 -23.984375 C 3.484375 -23.972656 3.851562 -23.957031 4.15625 -23.9375 C 4.46875 -23.914062 4.753906 -23.898438 5.015625 -23.890625 C 5.285156 -23.878906 5.625 -23.875 6.03125 -23.875 C 6.414062 -23.875 6.742188 -23.878906 7.015625 -23.890625 C 7.285156 -23.898438 7.578125 -23.914062 7.890625 -23.9375 C 8.203125 -23.957031 8.570312 -23.972656 9 -23.984375 C 9.4375 -24.003906 10.015625 -24.015625 10.734375 -24.015625 L 10.734375 -23.65625 C 10.347656 -23.65625 9.976562 -23.625 9.625 -23.5625 C 9.28125 -23.5 8.976562 -23.382812 8.71875 -23.21875 C 8.457031 -23.050781 8.25 -22.816406 8.09375 -22.515625 C 7.9375 -22.222656 7.859375 -21.820312 7.859375 -21.3125 L 7.859375 -2.6875 C 7.859375 -2.1875 7.9375 -1.785156 8.09375 -1.484375 C 8.25 -1.191406 8.457031 -0.957031 8.71875 -0.78125 C 8.976562 -0.613281 9.28125 -0.5 9.625 -0.4375 C 9.976562 -0.382812 10.347656 -0.359375 10.734375 -0.359375 L 10.734375 0 C 10.015625 0 9.4375 -0.00390625 9 -0.015625 C 8.570312 -0.0234375 8.203125 -0.0390625 7.890625 -0.0625 C 7.578125 -0.09375 7.285156 -0.113281 7.015625 -0.125 C 6.742188 -0.132812 6.414062 -0.140625 6.03125 -0.140625 C 5.625 -0.140625 5.285156 -0.132812 5.015625 -0.125 C 4.753906 -0.113281 4.46875 -0.09375 4.15625 -0.0625 C 3.851562 -0.0390625 3.484375 -0.0234375 3.046875 -0.015625 C 2.617188 -0.00390625 2.046875 0 1.328125 0 L 1.328125 -0.359375 C 1.710938 -0.359375 2.078125 -0.382812 2.421875 -0.4375 C 2.765625 -0.5 3.066406 -0.613281 3.328125 -0.78125 C 3.597656 -0.957031 3.8125 -1.191406 3.96875 -1.484375 C 4.125 -1.785156 4.203125 -2.1875 4.203125 -2.6875 L 4.203125 -21.3125 C 4.203125 -21.820312 4.125 -22.222656 3.96875 -22.515625 C 3.8125 -22.816406 3.597656 -23.050781 3.328125 -23.21875 C 3.066406 -23.382812 2.765625 -23.5 2.421875 -23.5625 C 2.078125 -23.625 1.710938 -23.65625 1.328125 -23.65625 Z M 1.328125 -24.015625 "/></g></g></g><g fill="#cbc7b7" fill-opacity="1"><g transform="translate(157.433628, 305.378804)"><g><path d="M 14.421875 -24.4375 C 16.148438 -24.4375 17.78125 -24.144531 19.3125 -23.5625 C 20.84375 -22.976562 22.191406 -22.140625 23.359375 -21.046875 C 24.535156 -19.960938 25.460938 -18.644531 26.140625 -17.09375 C 26.828125 -15.550781 27.171875 -13.835938 27.171875 -11.953125 C 27.171875 -10.015625 26.828125 -8.28125 26.140625 -6.75 C 25.460938 -5.21875 24.539062 -3.910156 23.375 -2.828125 C 22.21875 -1.753906 20.867188 -0.929688 19.328125 -0.359375 C 17.785156 0.210938 16.148438 0.5 14.421875 0.5 C 12.585938 0.5 10.890625 0.207031 9.328125 -0.375 C 7.773438 -0.957031 6.421875 -1.789062 5.265625 -2.875 C 4.117188 -3.96875 3.222656 -5.285156 2.578125 -6.828125 C 1.929688 -8.378906 1.609375 -10.109375 1.609375 -12.015625 C 1.609375 -13.835938 1.929688 -15.507812 2.578125 -17.03125 C 3.222656 -18.550781 4.113281 -19.859375 5.25 -20.953125 C 6.394531 -22.054688 7.75 -22.910156 9.3125 -23.515625 C 10.882812 -24.128906 12.585938 -24.4375 14.421875 -24.4375 Z M 14.421875 -23.828125 C 13.015625 -23.828125 11.765625 -23.5 10.671875 -22.84375 C 9.585938 -22.1875 8.679688 -21.304688 7.953125 -20.203125 C 7.222656 -19.109375 6.671875 -17.84375 6.296875 -16.40625 C 5.929688 -14.96875 5.75 -13.484375 5.75 -11.953125 C 5.75 -10.328125 5.929688 -8.796875 6.296875 -7.359375 C 6.671875 -5.921875 7.222656 -4.671875 7.953125 -3.609375 C 8.679688 -2.546875 9.585938 -1.703125 10.671875 -1.078125 C 11.765625 -0.453125 13.015625 -0.140625 14.421875 -0.140625 C 15.765625 -0.140625 16.96875 -0.441406 18.03125 -1.046875 C 19.09375 -1.660156 19.992188 -2.492188 20.734375 -3.546875 C 21.484375 -4.597656 22.054688 -5.847656 22.453125 -7.296875 C 22.847656 -8.742188 23.046875 -10.296875 23.046875 -11.953125 C 23.046875 -13.578125 22.847656 -15.113281 22.453125 -16.5625 C 22.054688 -18.007812 21.484375 -19.269531 20.734375 -20.34375 C 19.992188 -21.425781 19.09375 -22.273438 18.03125 -22.890625 C 16.96875 -23.515625 15.765625 -23.828125 14.421875 -23.828125 Z M 14.421875 -23.828125 "/></g></g></g><g fill="#cbc7b7" fill-opacity="1"><g transform="translate(186.22272, 305.378804)"><g><path d="M 1.328125 -24.015625 C 2.046875 -24.015625 2.617188 -24.003906 3.046875 -23.984375 C 3.484375 -23.972656 3.847656 -23.96875 4.140625 -23.96875 C 4.441406 -23.96875 4.722656 -23.960938 4.984375 -23.953125 C 5.253906 -23.941406 5.578125 -23.9375 5.953125 -23.9375 C 6.578125 -23.9375 7.300781 -23.96875 8.125 -24.03125 C 8.957031 -24.09375 9.875 -24.125 10.875 -24.125 C 11.8125 -24.125 12.785156 -24.050781 13.796875 -23.90625 C 14.816406 -23.757812 15.75 -23.46875 16.59375 -23.03125 C 17.445312 -22.601562 18.148438 -21.988281 18.703125 -21.1875 C 19.253906 -20.382812 19.53125 -19.328125 19.53125 -18.015625 C 19.53125 -17.128906 19.347656 -16.328125 18.984375 -15.609375 C 18.628906 -14.890625 18.15625 -14.265625 17.5625 -13.734375 C 16.976562 -13.210938 16.304688 -12.78125 15.546875 -12.4375 C 14.796875 -12.09375 14.03125 -11.859375 13.25 -11.734375 C 13.488281 -11.421875 13.90625 -10.90625 14.5 -10.1875 C 15.09375 -9.46875 15.757812 -8.660156 16.5 -7.765625 C 17.25 -6.867188 18.023438 -5.945312 18.828125 -5 C 19.628906 -4.0625 20.351562 -3.21875 21 -2.46875 C 21.550781 -1.851562 22.070312 -1.347656 22.5625 -0.953125 C 23.050781 -0.554688 23.59375 -0.359375 24.1875 -0.359375 L 24.1875 0 C 23.664062 0 23.242188 -0.00390625 22.921875 -0.015625 C 22.597656 -0.0234375 22.328125 -0.0351562 22.109375 -0.046875 C 21.890625 -0.0664062 21.6875 -0.0820312 21.5 -0.09375 C 21.3125 -0.101562 21.070312 -0.109375 20.78125 -0.109375 C 20.488281 -0.109375 20.238281 -0.101562 20.03125 -0.09375 C 19.832031 -0.0820312 19.644531 -0.0664062 19.46875 -0.046875 C 19.289062 -0.0351562 19.09375 -0.0234375 18.875 -0.015625 C 18.664062 -0.00390625 18.390625 0 18.046875 0 C 17.304688 -0.9375 16.625 -1.816406 16 -2.640625 C 15.382812 -3.460938 14.773438 -4.269531 14.171875 -5.0625 C 13.578125 -5.851562 12.96875 -6.648438 12.34375 -7.453125 C 11.71875 -8.253906 11.050781 -9.109375 10.34375 -10.015625 C 9.976562 -10.472656 9.664062 -10.789062 9.40625 -10.96875 C 9.144531 -11.144531 8.738281 -11.234375 8.1875 -11.234375 L 7.859375 -11.234375 L 7.859375 -2.6875 C 7.859375 -2.1875 7.9375 -1.785156 8.09375 -1.484375 C 8.25 -1.191406 8.457031 -0.957031 8.71875 -0.78125 C 8.976562 -0.613281 9.28125 -0.5 9.625 -0.4375 C 9.976562 -0.382812 10.347656 -0.359375 10.734375 -0.359375 L 10.734375 0 C 10.015625 0 9.4375 -0.00390625 9 -0.015625 C 8.570312 -0.0234375 8.203125 -0.0390625 7.890625 -0.0625 C 7.578125 -0.09375 7.285156 -0.113281 7.015625 -0.125 C 6.742188 -0.132812 6.414062 -0.140625 6.03125 -0.140625 C 5.625 -0.140625 5.285156 -0.132812 5.015625 -0.125 C 4.753906 -0.113281 4.46875 -0.09375 4.15625 -0.0625 C 3.851562 -0.0390625 3.484375 -0.0234375 3.046875 -0.015625 C 2.617188 -0.00390625 2.046875 0 1.328125 0 L 1.328125 -0.359375 C 1.710938 -0.359375 2.078125 -0.382812 2.421875 -0.4375 C 2.765625 -0.5 3.066406 -0.613281 3.328125 -0.78125 C 3.597656 -0.957031 3.8125 -1.191406 3.96875 -1.484375 C 4.125 -1.785156 4.203125 -2.1875 4.203125 -2.6875 L 4.203125 -21.3125 C 4.203125 -21.820312 4.125 -22.222656 3.96875 -22.515625 C 3.8125 -22.816406 3.597656 -23.050781 3.328125 -23.21875 C 3.066406 -23.382812 2.765625 -23.5 2.421875 -23.5625 C 2.078125 -23.625 1.710938 -23.65625 1.328125 -23.65625 Z M 7.859375 -11.875 L 9.65625 -11.875 C 11.59375 -11.875 13.039062 -12.398438 14 -13.453125 C 14.957031 -14.503906 15.4375 -16.050781 15.4375 -18.09375 C 15.4375 -18.832031 15.316406 -19.523438 15.078125 -20.171875 C 14.835938 -20.816406 14.488281 -21.382812 14.03125 -21.875 C 13.570312 -22.363281 13.007812 -22.75 12.34375 -23.03125 C 11.675781 -23.320312 10.921875 -23.46875 10.078125 -23.46875 C 9.890625 -23.46875 9.664062 -23.460938 9.40625 -23.453125 C 9.144531 -23.441406 8.898438 -23.390625 8.671875 -23.296875 C 8.441406 -23.203125 8.25 -23.0625 8.09375 -22.875 C 7.9375 -22.695312 7.859375 -22.453125 7.859375 -22.140625 Z M 7.859375 -11.875 "/></g></g></g><g fill="#cbc7b7" fill-opacity="1"><g transform="translate(210.058081, 305.378804)"><g><path d="M 15.03125 -23.96875 C 15.03125 -23.5625 15.023438 -23.132812 15.015625 -22.6875 C 15.003906 -22.25 15 -21.816406 15 -21.390625 C 15 -20.929688 15.03125 -20.414062 15.09375 -19.84375 C 15.15625 -19.269531 15.1875 -18.734375 15.1875 -18.234375 L 14.75 -18.234375 C 14.675781 -18.921875 14.484375 -19.597656 14.171875 -20.265625 C 13.859375 -20.941406 13.457031 -21.546875 12.96875 -22.078125 C 12.476562 -22.617188 11.90625 -23.050781 11.25 -23.375 C 10.59375 -23.707031 9.867188 -23.875 9.078125 -23.875 C 8.453125 -23.875 7.867188 -23.753906 7.328125 -23.515625 C 6.796875 -23.273438 6.335938 -22.957031 5.953125 -22.5625 C 5.578125 -22.164062 5.28125 -21.691406 5.0625 -21.140625 C 4.84375 -20.585938 4.734375 -20.015625 4.734375 -19.421875 C 4.734375 -18.535156 4.957031 -17.796875 5.40625 -17.203125 C 5.863281 -16.617188 6.441406 -16.125 7.140625 -15.71875 C 7.835938 -15.3125 8.59375 -14.945312 9.40625 -14.625 C 10.21875 -14.300781 10.984375 -13.960938 11.703125 -13.609375 C 12.441406 -13.222656 13.140625 -12.8125 13.796875 -12.375 C 14.453125 -11.945312 15.019531 -11.457031 15.5 -10.90625 C 15.976562 -10.351562 16.359375 -9.710938 16.640625 -8.984375 C 16.929688 -8.253906 17.078125 -7.390625 17.078125 -6.390625 C 17.078125 -5.378906 16.875 -4.457031 16.46875 -3.625 C 16.0625 -2.789062 15.5 -2.070312 14.78125 -1.46875 C 14.0625 -0.875 13.210938 -0.40625 12.234375 -0.0625 C 11.253906 0.269531 10.179688 0.4375 9.015625 0.4375 C 7.816406 0.4375 6.742188 0.238281 5.796875 -0.15625 C 4.847656 -0.550781 3.910156 -1.0625 2.984375 -1.6875 L 2.15625 -0.28125 L 1.796875 -0.28125 C 1.796875 -1.03125 1.804688 -1.617188 1.828125 -2.046875 C 1.847656 -2.472656 1.859375 -2.925781 1.859375 -3.40625 C 1.859375 -3.90625 1.847656 -4.445312 1.828125 -5.03125 C 1.804688 -5.625 1.796875 -6.304688 1.796875 -7.078125 L 2.21875 -7.078125 C 2.269531 -6.160156 2.457031 -5.289062 2.78125 -4.46875 C 3.101562 -3.644531 3.546875 -2.921875 4.109375 -2.296875 C 4.671875 -1.671875 5.347656 -1.164062 6.140625 -0.78125 C 6.929688 -0.40625 7.828125 -0.21875 8.828125 -0.21875 C 9.566406 -0.21875 10.265625 -0.335938 10.921875 -0.578125 C 11.585938 -0.816406 12.164062 -1.15625 12.65625 -1.59375 C 13.144531 -2.039062 13.523438 -2.5625 13.796875 -3.15625 C 14.078125 -3.757812 14.21875 -4.414062 14.21875 -5.125 C 14.21875 -5.875 14.035156 -6.535156 13.671875 -7.109375 C 13.316406 -7.679688 12.859375 -8.1875 12.296875 -8.625 C 11.734375 -9.070312 11.101562 -9.46875 10.40625 -9.8125 C 9.71875 -10.164062 9.046875 -10.492188 8.390625 -10.796875 C 7.628906 -11.160156 6.878906 -11.554688 6.140625 -11.984375 C 5.398438 -12.421875 4.734375 -12.925781 4.140625 -13.5 C 3.554688 -14.070312 3.082031 -14.734375 2.71875 -15.484375 C 2.363281 -16.242188 2.1875 -17.132812 2.1875 -18.15625 C 2.1875 -19.019531 2.367188 -19.832031 2.734375 -20.59375 C 3.109375 -21.363281 3.609375 -22.035156 4.234375 -22.609375 C 4.859375 -23.179688 5.578125 -23.632812 6.390625 -23.96875 C 7.203125 -24.3125 8.050781 -24.484375 8.9375 -24.484375 C 9.84375 -24.484375 10.710938 -24.320312 11.546875 -24 C 12.390625 -23.675781 13.179688 -23.210938 13.921875 -22.609375 L 14.671875 -23.96875 Z M 15.03125 -23.96875 "/></g></g></g><g fill="#cbc7b7" fill-opacity="1"><g transform="translate(66.147894, 224.868614)"><g><path d="M 74.640625 -118.984375 C 74.640625 -116.960938 74.609375 -114.851562 74.546875 -112.65625 C 74.484375 -110.46875 74.453125 -108.300781 74.453125 -106.15625 C 74.453125 -103.90625 74.597656 -101.351562 74.890625 -98.5 C 75.191406 -95.65625 75.34375 -92.984375 75.34375 -90.484375 L 73.203125 -90.484375 C 72.847656 -93.929688 71.898438 -97.316406 70.359375 -100.640625 C 68.816406 -103.960938 66.828125 -106.957031 64.390625 -109.625 C 61.953125 -112.300781 59.097656 -114.441406 55.828125 -116.046875 C 52.566406 -117.648438 48.976562 -118.453125 45.0625 -118.453125 C 41.976562 -118.453125 39.097656 -117.859375 36.421875 -116.671875 C 33.753906 -115.484375 31.46875 -113.910156 29.5625 -111.953125 C 27.664062 -109.992188 26.179688 -107.644531 25.109375 -104.90625 C 24.046875 -102.175781 23.515625 -99.328125 23.515625 -96.359375 C 23.515625 -91.972656 24.640625 -88.320312 26.890625 -85.40625 C 29.148438 -82.5 32 -80.035156 35.4375 -78.015625 C 38.882812 -75.992188 42.625 -74.179688 46.65625 -72.578125 C 50.695312 -70.984375 54.5 -69.296875 58.0625 -67.515625 C 61.75 -65.609375 65.222656 -63.585938 68.484375 -61.453125 C 71.753906 -59.316406 74.578125 -56.878906 76.953125 -54.140625 C 79.328125 -51.410156 81.222656 -48.234375 82.640625 -44.609375 C 84.066406 -40.992188 84.78125 -36.691406 84.78125 -31.703125 C 84.78125 -26.710938 83.769531 -22.140625 81.75 -17.984375 C 79.738281 -13.828125 76.953125 -10.265625 73.390625 -7.296875 C 69.828125 -4.328125 65.609375 -2.007812 60.734375 -0.34375 C 55.867188 1.3125 50.523438 2.140625 44.703125 2.140625 C 38.765625 2.140625 33.453125 1.160156 28.765625 -0.796875 C 24.078125 -2.753906 19.414062 -5.28125 14.78125 -8.375 L 10.6875 -1.421875 L 8.90625 -1.421875 C 8.90625 -5.109375 8.960938 -8.019531 9.078125 -10.15625 C 9.203125 -12.289062 9.265625 -14.546875 9.265625 -16.921875 C 9.265625 -19.410156 9.203125 -22.109375 9.078125 -25.015625 C 8.960938 -27.929688 8.90625 -31.289062 8.90625 -35.09375 L 11.046875 -35.09375 C 11.285156 -30.582031 12.203125 -26.273438 13.796875 -22.171875 C 15.398438 -18.078125 17.597656 -14.484375 20.390625 -11.390625 C 23.179688 -8.304688 26.535156 -5.8125 30.453125 -3.90625 C 34.378906 -2.007812 38.832031 -1.0625 43.8125 -1.0625 C 47.5 -1.0625 50.972656 -1.65625 54.234375 -2.84375 C 57.503906 -4.03125 60.351562 -5.722656 62.78125 -7.921875 C 65.21875 -10.117188 67.117188 -12.703125 68.484375 -15.671875 C 69.847656 -18.640625 70.53125 -21.90625 70.53125 -25.46875 C 70.53125 -29.15625 69.640625 -32.421875 67.859375 -35.265625 C 66.078125 -38.117188 63.789062 -40.644531 61 -42.84375 C 58.21875 -45.039062 55.101562 -47 51.65625 -48.71875 C 48.207031 -50.4375 44.882812 -52.066406 41.6875 -53.609375 C 37.882812 -55.390625 34.140625 -57.347656 30.453125 -59.484375 C 26.773438 -61.628906 23.476562 -64.125 20.5625 -66.96875 C 17.65625 -69.820312 15.3125 -73.117188 13.53125 -76.859375 C 11.75 -80.597656 10.859375 -85.019531 10.859375 -90.125 C 10.859375 -94.40625 11.78125 -98.441406 13.625 -102.234375 C 15.46875 -106.035156 17.929688 -109.363281 21.015625 -112.21875 C 24.109375 -115.070312 27.671875 -117.328125 31.703125 -118.984375 C 35.742188 -120.648438 39.960938 -121.484375 44.359375 -121.484375 C 48.867188 -121.484375 53.203125 -120.679688 57.359375 -119.078125 C 61.515625 -117.472656 65.429688 -115.1875 69.109375 -112.21875 L 72.859375 -118.984375 Z M 74.640625 -118.984375 "/></g></g></g><g fill="#cbc7b7" fill-opacity="1"><g transform="translate(92.349396, 259.570932)"><g><path d="M 96.703125 -26.53125 C 96.703125 -23.875 96.722656 -20.945312 96.765625 -17.75 C 96.816406 -14.5625 96.941406 -11.988281 97.140625 -10.03125 C 93.703125 -9.726562 90.484375 -8.9375 87.484375 -7.65625 C 84.484375 -6.382812 81.382812 -5.035156 78.1875 -3.609375 C 75 -2.179688 71.535156 -0.90625 67.796875 0.21875 C 64.066406 1.351562 59.796875 1.921875 54.984375 1.921875 C 47.804688 1.921875 41.269531 0.71875 35.375 -1.6875 C 29.476562 -4.101562 24.390625 -7.519531 20.109375 -11.9375 C 15.835938 -16.363281 12.523438 -21.644531 10.171875 -27.78125 C 7.816406 -33.925781 6.640625 -40.734375 6.640625 -48.203125 C 6.640625 -55.566406 7.960938 -62.441406 10.609375 -68.828125 C 13.265625 -75.222656 16.925781 -80.726562 21.59375 -85.34375 C 26.257812 -89.96875 31.738281 -93.601562 38.03125 -96.25 C 44.320312 -98.90625 51.148438 -100.234375 58.515625 -100.234375 C 64.023438 -100.234375 69.1875 -99.421875 74 -97.796875 C 78.8125 -96.179688 83.378906 -93.945312 87.703125 -91.09375 L 91.25 -96.40625 L 92.71875 -96.40625 C 92.625 -94.632812 92.5 -93.132812 92.34375 -91.90625 C 92.195312 -90.675781 92.070312 -89.566406 91.96875 -88.578125 C 91.875 -87.597656 91.78125 -86.664062 91.6875 -85.78125 C 91.59375 -84.90625 91.546875 -83.925781 91.546875 -82.84375 C 91.546875 -81.5625 91.546875 -80.503906 91.546875 -79.671875 C 91.546875 -78.835938 91.566406 -77.953125 91.609375 -77.015625 C 91.660156 -76.085938 91.6875 -74.929688 91.6875 -73.546875 C 91.6875 -72.171875 91.6875 -70.304688 91.6875 -67.953125 L 89.921875 -67.953125 C 89.523438 -76.992188 86.550781 -84.21875 81 -89.625 C 75.445312 -95.03125 67.851562 -97.734375 58.21875 -97.734375 C 54.09375 -97.734375 49.96875 -96.675781 45.84375 -94.5625 C 41.71875 -92.445312 38.007812 -89.300781 34.71875 -85.125 C 31.425781 -80.945312 28.742188 -75.738281 26.671875 -69.5 C 24.609375 -63.257812 23.578125 -55.960938 23.578125 -47.609375 C 23.578125 -44.566406 23.773438 -41.300781 24.171875 -37.8125 C 24.566406 -34.320312 25.253906 -30.832031 26.234375 -27.34375 C 27.222656 -23.851562 28.523438 -20.507812 30.140625 -17.3125 C 31.765625 -14.125 33.78125 -11.300781 36.1875 -8.84375 C 38.59375 -6.382812 41.414062 -4.414062 44.65625 -2.9375 C 47.90625 -1.46875 51.640625 -0.734375 55.859375 -0.734375 C 58.910156 -0.734375 61.957031 -1.175781 65 -2.0625 C 68.050781 -2.945312 70.804688 -4.347656 73.265625 -6.265625 C 75.722656 -8.179688 77.734375 -10.585938 79.296875 -13.484375 C 80.867188 -16.390625 81.65625 -19.90625 81.65625 -24.03125 C 81.65625 -28.84375 80.671875 -32.28125 78.703125 -34.34375 C 76.742188 -36.40625 73.113281 -37.4375 67.8125 -37.4375 L 67.8125 -38.921875 C 70.757812 -38.921875 73.191406 -38.894531 75.109375 -38.84375 C 77.023438 -38.789062 78.71875 -38.710938 80.1875 -38.609375 C 81.664062 -38.515625 83.039062 -38.441406 84.3125 -38.390625 C 85.59375 -38.347656 87.066406 -38.328125 88.734375 -38.328125 C 90.304688 -38.328125 91.679688 -38.347656 92.859375 -38.390625 C 94.046875 -38.441406 95.300781 -38.515625 96.625 -38.609375 C 97.945312 -38.710938 99.515625 -38.789062 101.328125 -38.84375 C 103.148438 -38.894531 105.535156 -38.921875 108.484375 -38.921875 L 108.484375 -37.4375 C 104.265625 -37.4375 101.242188 -36.722656 99.421875 -35.296875 C 97.609375 -33.878906 96.703125 -30.957031 96.703125 -26.53125 Z M 96.703125 -26.53125 "/></g></g></g></svg>