<svg xmlns="http://www.w3.org/2000/svg" xmlns:xlink="http://www.w3.org/1999/xlink" width="61" zoomAndPan="magnify" viewBox="0 0 45.75 45.749999" height="61" preserveAspectRatio="xMidYMid meet" version="1.0"><defs><clipPath id="4595b855d4"><path d="M 0 0 L 45.5 0 L 45.5 45.5 L 0 45.5 Z M 0 0 " clip-rule="nonzero"/></clipPath><clipPath id="d61d744f86"><path d="M 0.527344 0.222656 L 45.28125 0.222656 L 45.28125 44.976562 L 0.527344 44.976562 Z M 0.527344 0.222656 " clip-rule="nonzero"/></clipPath><clipPath id="6d087b84fd"><path d="M 39.15625 19.535156 L 45.125 19.535156 L 45.125 25.503906 L 39.15625 25.503906 Z M 39.15625 19.535156 " clip-rule="nonzero"/></clipPath></defs><g clip-path="url(#4595b855d4)"><path fill="none" d="M 0 0 L 45.5 0 L 45.5 45.5 L 0 45.5 Z M 0 0 " fill-opacity="1" fill-rule="nonzero"/></g><path fill="#848175" d="M 22.824219 17.574219 C 20.101562 17.574219 17.882812 19.796875 17.882812 22.515625 C 17.882812 25.238281 20.101562 27.457031 22.824219 27.457031 C 25.542969 27.457031 27.765625 25.238281 27.765625 22.515625 C 27.765625 19.796875 25.542969 17.574219 22.824219 17.574219 Z M 22.824219 17.574219 " fill-opacity="1" fill-rule="nonzero"/><path fill="#848175" d="M 29.464844 10.394531 L 16.183594 10.394531 C 13.171875 10.394531 10.699219 12.847656 10.699219 15.875 L 10.699219 29.15625 C 10.699219 32.167969 13.152344 34.640625 16.183594 34.640625 L 29.464844 34.640625 C 32.476562 34.640625 34.945312 32.1875 34.945312 29.15625 L 34.945312 15.875 C 34.925781 12.847656 32.476562 10.394531 29.464844 10.394531 Z M 22.824219 29.949219 C 18.710938 29.949219 15.371094 26.609375 15.371094 22.496094 C 15.371094 18.386719 18.710938 15.046875 22.824219 15.046875 C 26.933594 15.046875 30.273438 18.386719 30.273438 22.496094 C 30.253906 26.609375 26.914062 29.949219 22.824219 29.949219 Z M 30.796875 16.300781 C 29.8125 16.300781 29 15.492188 29 14.507812 C 29 13.519531 29.8125 12.710938 30.796875 12.710938 C 31.78125 12.710938 32.589844 13.519531 32.589844 14.507812 C 32.589844 15.507812 31.800781 16.300781 30.796875 16.300781 Z M 30.796875 16.300781 " fill-opacity="1" fill-rule="nonzero"/><g clip-path="url(#d61d744f86)"><path fill="#848175" d="M 22.824219 0.222656 C 10.507812 0.222656 0.527344 10.199219 0.527344 22.515625 C 0.527344 34.832031 10.507812 44.8125 22.824219 44.8125 C 35.140625 44.8125 45.117188 34.832031 45.117188 22.515625 C 45.097656 10.199219 35.121094 0.222656 22.824219 0.222656 Z M 37.4375 29.15625 C 37.4375 33.558594 33.84375 37.148438 29.445312 37.148438 L 16.183594 37.148438 C 11.78125 37.148438 8.191406 33.558594 8.191406 29.15625 L 8.191406 15.875 C 8.191406 11.476562 11.78125 7.882812 16.183594 7.882812 L 29.464844 7.882812 C 33.863281 7.882812 37.457031 11.476562 37.457031 15.875 L 37.457031 29.15625 Z M 37.4375 29.15625 " fill-opacity="1" fill-rule="nonzero"/></g><g clip-path="url(#6d087b84fd)"><path fill="#848175" d="M 39.15625 19.535156 L 45.125 19.535156 L 45.125 25.503906 L 39.15625 25.503906 Z M 39.15625 19.535156 " fill-opacity="1" fill-rule="nonzero"/></g></svg>