<svg xmlns="http://www.w3.org/2000/svg" xmlns:xlink="http://www.w3.org/1999/xlink" width="61" zoomAndPan="magnify" viewBox="0 0 45.75 36.000001" height="48" preserveAspectRatio="xMidYMid meet" version="1.0"><defs><clipPath id="f6bf15d6d0"><path d="M 0.496094 0 L 45.011719 0 L 45.011719 35.027344 L 0.496094 35.027344 Z M 0.496094 0 " clip-rule="nonzero"/></clipPath><clipPath id="beff7243fc"><path d="M 0.535156 0.667969 L 44.320312 0.667969 L 44.320312 18 L 0.535156 18 Z M 0.535156 0.667969 " clip-rule="nonzero"/></clipPath><clipPath id="8c3a045e64"><path d="M 0.535156 8 L 44.320312 8 L 44.320312 34.234375 L 0.535156 34.234375 Z M 0.535156 8 " clip-rule="nonzero"/></clipPath><clipPath id="901b1ffd5d"><path d="M 34.0625 24.082031 L 39.902344 24.082031 L 39.902344 29.917969 L 34.0625 29.917969 Z M 34.0625 24.082031 " clip-rule="nonzero"/></clipPath></defs><g clip-path="url(#f6bf15d6d0)"><path fill="none" d="M 0.496094 0 L 45.011719 0 L 45.011719 35.027344 L 0.496094 35.027344 Z M 0.496094 0 " fill-opacity="1" fill-rule="nonzero"/></g><g clip-path="url(#beff7243fc)"><path fill="#848175" d="M 22.511719 17.289062 L 44.488281 4.105469 L 44.488281 4.046875 C 44.488281 3.597656 44.402344 3.167969 44.230469 2.753906 C 44.058594 2.339844 43.8125 1.972656 43.496094 1.65625 C 43.179688 1.339844 42.8125 1.097656 42.398438 0.925781 C 41.984375 0.753906 41.554688 0.667969 41.105469 0.667969 L 3.917969 0.667969 C 3.46875 0.667969 3.039062 0.753906 2.625 0.925781 C 2.210938 1.097656 1.84375 1.339844 1.527344 1.65625 C 1.210938 1.972656 0.964844 2.339844 0.796875 2.753906 C 0.625 3.167969 0.539062 3.597656 0.539062 4.046875 L 0.539062 4.105469 Z M 22.511719 17.289062 " fill-opacity="1" fill-rule="nonzero"/></g><g clip-path="url(#8c3a045e64)"><path fill="#848175" d="M 23.382812 20.710938 C 23.113281 20.871094 22.824219 20.949219 22.511719 20.949219 C 22.199219 20.949219 21.910156 20.871094 21.640625 20.710938 L 0.539062 8.046875 L 0.539062 31.09375 C 0.539062 31.542969 0.625 31.972656 0.796875 32.386719 C 0.964844 32.800781 1.210938 33.167969 1.527344 33.484375 C 1.84375 33.800781 2.210938 34.042969 2.625 34.214844 C 3.039062 34.386719 3.46875 34.472656 3.917969 34.472656 L 41.105469 34.472656 C 41.554688 34.472656 41.984375 34.386719 42.398438 34.214844 C 42.8125 34.042969 43.179688 33.800781 43.496094 33.484375 C 43.8125 33.167969 44.058594 32.800781 44.230469 32.386719 C 44.402344 31.972656 44.488281 31.542969 44.488281 31.09375 L 44.488281 8.046875 Z M 23.382812 20.710938 " fill-opacity="1" fill-rule="nonzero"/></g><g clip-path="url(#901b1ffd5d)"><path fill="#848175" d="M 34.0625 24.082031 L 39.902344 24.082031 L 39.902344 29.917969 L 34.0625 29.917969 Z M 34.0625 24.082031 " fill-opacity="1" fill-rule="nonzero"/></g></svg>