<svg xmlns="http://www.w3.org/2000/svg" xmlns:xlink="http://www.w3.org/1999/xlink" width="45" zoomAndPan="magnify" viewBox="0 0 33.75 48" height="64" preserveAspectRatio="xMidYMid meet" version="1.0"><defs><clipPath id="c1db9055f8"><path d="M 0.222656 0 L 33.28125 0 L 33.28125 47.019531 L 0.222656 47.019531 Z M 0.222656 0 " clip-rule="nonzero"/></clipPath><clipPath id="22220c6e2c"><path d="M 11.976562 23.511719 L 17.855469 23.511719 L 17.855469 29.386719 L 11.976562 29.386719 Z M 11.976562 23.511719 " clip-rule="nonzero"/></clipPath></defs><g clip-path="url(#c1db9055f8)"><path fill="none" d="M 0.222656 0 L 33.28125 0 L 33.28125 47.019531 L 0.222656 47.019531 Z M 0.222656 0 " fill-opacity="1" fill-rule="nonzero"/><path fill="#848175" d="M 16.679688 0 C 7.59375 0 0.222656 7.371094 0.222656 16.457031 C 0.222656 28.800781 16.679688 47.019531 16.679688 47.019531 C 16.679688 47.019531 33.132812 28.800781 33.132812 16.457031 C 33.132812 7.371094 25.765625 0 16.679688 0 Z M 16.679688 22.335938 C 13.433594 22.335938 10.800781 19.703125 10.800781 16.457031 C 10.800781 13.214844 13.433594 10.582031 16.679688 10.582031 C 19.921875 10.582031 22.554688 13.214844 22.554688 16.457031 C 22.554688 19.703125 19.921875 22.335938 16.679688 22.335938 Z M 16.679688 22.335938 " fill-opacity="1" fill-rule="nonzero"/></g><g clip-path="url(#22220c6e2c)"><path fill="#848175" d="M 11.976562 23.511719 L 17.855469 23.511719 L 17.855469 29.386719 L 11.976562 29.386719 Z M 11.976562 23.511719 " fill-opacity="1" fill-rule="nonzero"/></g></svg>