<svg xmlns="http://www.w3.org/2000/svg" xmlns:xlink="http://www.w3.org/1999/xlink" width="39" zoomAndPan="magnify" viewBox="0 0 29.25 49.499998" height="66" preserveAspectRatio="xMidYMid meet" version="1.0"><defs><clipPath id="c9c9c42060"><path d="M 0 0.375 L 28.519531 0.375 L 28.519531 48.636719 L 0 48.636719 Z M 0 0.375 " clip-rule="nonzero"/></clipPath><clipPath id="741a0a3a7a"><path d="M 0 1.074219 L 27.789062 1.074219 L 27.789062 48.605469 L 0 48.605469 Z M 0 1.074219 " clip-rule="nonzero"/></clipPath><clipPath id="f4b8534305"><path d="M 0 38.398438 L 5.851562 38.398438 L 5.851562 44.25 L 0 44.25 Z M 0 38.398438 " clip-rule="nonzero"/></clipPath><clipPath id="ea5d7b6957"><path d="M 2.925781 41.324219 L 8.773438 41.324219 L 8.773438 47.175781 L 2.925781 47.175781 Z M 2.925781 41.324219 " clip-rule="nonzero"/></clipPath></defs><g clip-path="url(#c9c9c42060)"><path fill="none" d="M 0 0.375 L 28.519531 0.375 L 28.519531 48.636719 L 0 48.636719 Z M 0 0.375 " fill-opacity="1" fill-rule="nonzero"/></g><g clip-path="url(#741a0a3a7a)"><path fill="#848175" d="M 22.617188 1.074219 L 5.390625 1.074219 C 2.417969 1.074219 0.0078125 3.484375 0.0078125 6.457031 L 0.0078125 43.058594 C 0.0078125 46.03125 2.417969 48.445312 5.390625 48.445312 L 22.617188 48.445312 C 25.585938 48.445312 28 46.03125 28 43.058594 L 28 6.457031 C 28 3.484375 25.585938 1.074219 22.617188 1.074219 Z M 14.003906 46.289062 C 12.214844 46.289062 10.773438 44.847656 10.773438 43.058594 C 10.773438 41.273438 12.214844 39.832031 14.003906 39.832031 C 15.789062 39.832031 17.230469 41.273438 17.230469 43.058594 C 17.230469 44.847656 15.789062 46.289062 14.003906 46.289062 Z M 23.691406 37.675781 L 4.3125 37.675781 L 4.3125 7.53125 L 23.691406 7.53125 Z M 23.691406 37.675781 " fill-opacity="1" fill-rule="nonzero"/></g><g clip-path="url(#f4b8534305)"><path fill="#848175" d="M 0 38.398438 L 5.851562 38.398438 L 5.851562 44.25 L 0 44.25 Z M 0 38.398438 " fill-opacity="1" fill-rule="nonzero"/></g><g clip-path="url(#ea5d7b6957)"><path fill="#848175" d="M 2.925781 41.324219 L 8.773438 41.324219 L 8.773438 47.175781 L 2.925781 47.175781 Z M 2.925781 41.324219 " fill-opacity="1" fill-rule="nonzero"/></g></svg>