<?xml version="1.0" encoding="UTF-8" standalone="no"?><!DOCTYPE svg PUBLIC "-//W3C//DTD SVG 1.1//EN" "http://www.w3.org/Graphics/SVG/1.1/DTD/svg11.dtd"><svg width="100%" height="100%" viewBox="0 0 1033 1125" version="1.1" xmlns="http://www.w3.org/2000/svg" xmlns:xlink="http://www.w3.org/1999/xlink" xml:space="preserve" xmlns:serif="http://www.serif.com/" style="fill-rule:evenodd;clip-rule:evenodd;stroke-linejoin:round;stroke-miterlimit:2;"><g><g><path d="M0,988.771c3.992,-0 7.163,0.067 9.55,0.175c2.429,0.062 4.467,0.15 6.163,0.258c1.733,0.134 3.32,0.217 4.775,0.263c1.495,0.062 3.383,0.087 5.641,0.087c2.125,0 3.95,-0.025 5.467,-0.087c1.5,-0.046 3.125,-0.129 4.862,-0.263c1.738,-0.108 3.775,-0.196 6.163,-0.258c2.429,-0.108 5.642,-0.175 9.637,-0.175l0,1.996c-2.15,-0 -4.212,0.175 -6.166,0.521c-1.909,0.35 -3.6,1 -5.034,1.912c-1.454,0.933 -2.604,2.233 -3.47,3.904c-0.871,1.629 -1.305,3.863 -1.305,6.684l0,103.475c0,2.775 0.434,5.012 1.305,6.683c0.866,1.625 2.016,2.929 3.47,3.904c1.434,0.933 3.125,1.563 5.034,1.913c1.954,0.304 4.016,0.433 6.166,0.433l0,1.996c-3.995,-0 -7.208,-0.021 -9.637,-0.088c-2.388,-0.041 -4.425,-0.129 -6.163,-0.258c-1.737,-0.175 -3.362,-0.283 -4.862,-0.35c-1.517,-0.042 -3.342,-0.083 -5.467,-0.083c-2.258,-0 -4.146,0.041 -5.641,0.083c-1.455,0.067 -3.042,0.175 -4.775,0.35c-1.696,0.129 -3.734,0.217 -6.163,0.258c-2.387,0.067 -5.558,0.088 -9.55,0.088l0,-1.996c2.125,-0 4.167,-0.129 6.075,-0.433c1.913,-0.35 3.583,-0.98 5.038,-1.913c1.495,-0.975 2.687,-2.279 3.558,-3.904c0.867,-1.671 1.3,-3.908 1.3,-6.683l-0,-103.475c-0,-2.821 -0.433,-5.055 -1.3,-6.684c-0.871,-1.671 -2.063,-2.971 -3.558,-3.904c-1.455,-0.912 -3.125,-1.562 -5.038,-1.912c-1.908,-0.346 -3.95,-0.521 -6.075,-0.521l0,-1.996Z" style="fill:#cbc7b7;fill-rule:nonzero;"/></g></g><g><g><path d="M69.003,1120.2c2.125,-0 4.167,-0.129 6.075,-0.433c1.912,-0.35 3.583,-0.98 5.037,-1.913c1.496,-0.975 2.692,-2.279 3.559,-3.904c0.866,-1.671 1.3,-3.908 1.3,-6.683l-0,-102.517l-4.425,-5.558c-1.867,-2.43 -3.884,-4.425 -6.075,-5.988c-2.217,-1.608 -5.017,-2.433 -8.421,-2.433l-0,-1.996c2.362,-0 4.425,0.067 6.162,0.175c1.738,0.062 3.3,0.129 4.688,0.175c1.387,0.062 2.625,0.129 3.733,0.171c1.15,0.066 2.45,0.087 3.904,0.087c1.325,0 2.455,-0.021 3.388,-0.087c0.908,-0.042 1.842,-0.109 2.775,-0.171c0.912,-0.046 1.912,-0.113 2.954,-0.175c1.083,-0.108 2.45,-0.175 4.079,-0.175l82.9,102.083l0,-87.066c0,-2.821 -0.433,-5.055 -1.304,-6.684c-0.867,-1.671 -2.037,-2.971 -3.471,-3.904c-1.454,-0.912 -3.171,-1.562 -5.121,-1.912c-1.912,-0.346 -3.908,-0.521 -5.991,-0.521l-0,-1.996c2.604,-0 4.708,0.067 6.337,0.175c1.604,0.062 2.996,0.129 4.167,0.175c1.217,0.062 2.346,0.129 3.387,0.171c1.084,0.066 2.363,0.087 3.817,0.087c1.433,0 2.692,-0.021 3.733,-0.087c1.084,-0.042 2.213,-0.109 3.388,-0.171c1.212,-0.046 2.646,-0.113 4.337,-0.175c1.671,-0.108 3.842,-0.175 6.513,-0.175l-0,1.996c-2.15,-0 -4.213,0.175 -6.163,0.521c-1.912,0.35 -3.604,1 -5.037,1.912c-1.454,0.933 -2.604,2.233 -3.471,3.904c-0.867,1.629 -1.304,3.863 -1.304,6.684l-0,120.833l-3.558,-0l-92.188,-115.45l0,98.092c0,2.775 0.433,5.012 1.304,6.683c0.867,1.625 2.017,2.929 3.471,3.904c1.496,0.933 3.213,1.563 5.121,1.913c1.912,0.304 3.929,0.433 6.079,0.433l0,1.996c-2.671,-0 -4.842,-0.021 -6.512,-0.088c-1.63,-0.041 -3.038,-0.108 -4.255,-0.171c-1.212,-0.112 -2.341,-0.195 -3.383,-0.262c-1.042,-0.042 -2.325,-0.088 -3.821,-0.088c-1.454,0 -2.733,0.046 -3.821,0.088c-1.041,0.067 -2.166,0.15 -3.383,0.262c-1.171,0.063 -2.562,0.13 -4.167,0.171c-1.562,0.067 -3.691,0.088 -6.337,0.088l-0,-1.996Z" style="fill:#cbc7b7;fill-rule:nonzero;"/></g></g><g><g><path d="M242.309,1120.2c2.125,-0 4.166,-0.129 6.075,-0.433c1.912,-0.35 3.583,-0.98 5.037,-1.913c1.496,-0.975 2.688,-2.279 3.559,-3.904c0.866,-1.671 1.3,-3.908 1.3,-6.683l-0,-114.671c-7.596,-0.284 -13.063,-0.479 -16.405,-0.609c-3.3,-0.108 -5.295,-0.175 -5.991,-0.175c-7.813,0.134 -13.496,2.563 -17.013,7.292c-3.537,4.688 -5.554,10.829 -6.075,18.404l-2,0l0.959,-29.079c3.058,-0.175 5.9,-0.262 8.504,-0.262l7.291,-0c5.317,-0 9.984,0.087 13.975,0.262c3.996,0.129 7.555,0.217 10.68,0.258c3.125,0.067 5.925,0.175 8.42,0.35c2.538,0.13 5.055,0.171 7.55,0.171c2.542,0 5.059,-0.041 7.555,-0.171c2.537,-0.175 5.404,-0.283 8.591,-0.35c3.234,-0.041 6.879,-0.129 10.938,-0.258c4.037,-0.175 8.854,-0.262 14.412,-0.262l7.55,-0c2.646,-0 5.513,0.087 8.596,0.262l1.213,29.079l-1.996,0c-0.238,-3.3 -0.846,-6.508 -1.821,-9.633c-0.933,-3.125 -2.325,-5.904 -4.167,-8.333c-1.866,-2.475 -4.233,-4.45 -7.121,-5.905c-2.841,-1.5 -6.25,-2.258 -10.241,-2.258c-0.65,0 -2.759,0.129 -6.338,0.35c-3.604,0.171 -9.179,0.475 -16.754,0.867l0,114.671c0,2.775 0.433,5.012 1.304,6.683c0.867,1.625 2.017,2.929 3.471,3.904c1.433,0.933 3.125,1.563 5.033,1.913c1.955,0.304 4.017,0.433 6.167,0.433l0,1.996c-3.996,-0 -7.208,-0.021 -9.637,-0.088c-2.388,-0.041 -4.425,-0.129 -6.163,-0.258c-1.737,-0.175 -3.362,-0.283 -4.862,-0.35c-1.517,-0.042 -3.342,-0.083 -5.467,-0.083c-2.258,-0 -4.146,0.041 -5.642,0.083c-1.454,0.067 -3.041,0.175 -4.775,0.35c-1.737,0.129 -3.8,0.217 -6.162,0.258c-2.388,0.067 -5.559,0.088 -9.55,0.088l-0,-1.996Z" style="fill:#cbc7b7;fill-rule:nonzero;"/></g></g><g><g><path d="M388.25,1051.45c6.013,-0 10.438,-1.5 13.284,-4.513c2.821,-2.995 4.254,-7.229 4.254,-12.675l1.996,0c-0,3.08 -0.046,5.621 -0.088,7.638c-0.066,1.975 -0.129,3.625 -0.175,4.95c-0.062,1.346 -0.15,2.471 -0.258,3.383c-0.067,0.934 -0.088,1.913 -0.088,2.954c0,1.105 0.021,2.084 0.088,2.95c0.108,0.825 0.196,1.867 0.258,3.125c0.046,1.28 0.109,2.909 0.175,4.863c0.042,1.908 0.088,4.404 0.088,7.462l-1.996,0c-0,-5.208 -1.433,-9.287 -4.254,-12.237c-2.846,-2.996 -7.271,-4.517 -13.284,-4.517l-13.541,0l-0,43.229c-0,4.821 0.433,8.659 1.304,11.546c0.867,2.842 2.387,4.95 4.6,6.338c2.192,1.387 5.079,2.3 8.679,2.691c3.583,0.413 8.096,0.609 13.542,0.609c4.796,-0 9.287,-0.175 13.454,-0.521c4.167,-0.35 7.837,-1.304 11.025,-2.867c3.233,-1.604 5.858,-4.1 7.9,-7.462c2.083,-3.409 3.387,-8.117 3.908,-14.15l2.167,-0l-1.563,27.95c-6.033,0.108 -11.35,0.196 -15.97,0.262c-4.646,0.109 -9.68,0.171 -15.105,0.171c-11.35,0 -20.487,-0.171 -27.429,-0.521c-6.904,-0.346 -12.458,-0.521 -16.666,-0.521c-2.15,0 -3.996,0.046 -5.559,0.088c-1.516,0.067 -3.125,0.15 -4.858,0.262c-1.696,0.063 -3.733,0.13 -6.163,0.171c-2.387,0.067 -5.558,0.088 -9.55,0.088l0,-1.996c2.125,-0 4.167,-0.129 6.075,-0.433c1.913,-0.35 3.584,-0.98 5.038,-1.913c1.496,-0.975 2.687,-2.279 3.558,-3.904c0.867,-1.671 1.3,-3.908 1.3,-6.683l0,-103.475c0,-2.821 -0.433,-5.055 -1.3,-6.684c-0.871,-1.671 -2.062,-2.971 -3.558,-3.904c-1.454,-0.912 -3.125,-1.562 -5.038,-1.912c-1.908,-0.346 -3.95,-0.521 -6.075,-0.521l0,-1.996c3.992,-0 7.138,0.067 9.463,0.175c2.3,0.062 4.296,0.129 5.987,0.175c1.671,0.062 3.234,0.129 4.688,0.171c1.433,0.066 3.233,0.087 5.383,0.087c4.513,0 9.984,-0.196 16.404,-0.608c6.467,-0.392 13.717,-0.608 21.705,-0.608c5.141,-0 9.808,0.087 13.975,0.262c4.208,0.129 8.983,0.238 14.32,0.346l1.217,25.954l-1.996,0c-0.412,-5.033 -1.475,-9.071 -3.212,-12.15c-1.738,-3.062 -4.079,-5.383 -7.029,-6.946c-2.909,-1.604 -6.296,-2.691 -10.159,-3.212c-3.821,-0.563 -8.071,-0.867 -12.758,-0.867c-1.175,0 -2.563,0.063 -4.167,0.175c-1.562,0.063 -3.171,0.129 -4.775,0.171c-1.629,0.067 -3.171,0.175 -4.6,0.35c-1.454,0.129 -2.65,0.237 -3.562,0.346c-3.079,0.412 -4.6,2.212 -4.6,5.383l-0,53.471l13.541,-0Z" style="fill:#cbc7b7;fill-rule:nonzero;"/></g></g><g><g><path d="M453.692,988.771c3.992,-0 7.163,0.067 9.55,0.175c2.429,0.062 4.446,0.087 6.075,0.087c1.671,0 3.233,0.042 4.688,0.088c1.495,0.062 3.3,0.083 5.383,0.083c3.471,0 7.483,-0.171 12.062,-0.521c4.625,-0.345 9.725,-0.52 15.28,-0.52c5.208,-0 10.612,0.412 16.233,1.216c5.662,0.825 10.85,2.429 15.537,4.863c4.73,2.387 8.638,5.791 11.721,10.241c3.059,4.471 4.6,10.33 4.6,17.621c0,4.925 -1.021,9.375 -3.037,13.371c-1.975,3.992 -4.604,7.463 -7.9,10.417c-3.259,2.904 -6.988,5.291 -11.2,7.204c-4.167,1.908 -8.421,3.212 -12.759,3.904c1.321,1.738 3.646,4.6 6.942,8.596c3.3,3.992 6.988,8.483 11.113,13.454c4.166,4.992 8.462,10.113 12.933,15.363c4.45,5.208 8.462,9.895 12.067,14.062c3.058,3.429 5.945,6.229 8.679,8.421c2.712,2.212 5.729,3.3 9.029,3.3l-0,1.996c-2.908,-0 -5.25,-0.021 -7.029,-0.088c-1.804,-0.041 -3.3,-0.108 -4.517,-0.171c-1.212,-0.112 -2.342,-0.195 -3.383,-0.262c-1.042,-0.042 -2.388,-0.088 -3.996,-0.088c-1.625,0 -3.017,0.046 -4.167,0.088c-1.104,0.067 -2.146,0.15 -3.125,0.262c-0.996,0.063 -2.083,0.13 -3.296,0.171c-1.175,0.067 -2.691,0.088 -4.6,0.088c-4.125,-5.209 -7.9,-10.092 -11.375,-14.671c-3.429,-4.558 -6.812,-9.05 -10.154,-13.454c-3.3,-4.384 -6.683,-8.813 -10.158,-13.279c-3.471,-4.45 -7.183,-9.205 -11.108,-14.238c-2.042,-2.542 -3.78,-4.296 -5.209,-5.296c-1.454,-0.975 -3.712,-1.475 -6.771,-1.475l-1.825,0l0,47.484c0,2.775 0.434,5.012 1.305,6.683c0.866,1.625 2.016,2.929 3.47,3.904c1.434,0.933 3.125,1.563 5.034,1.913c1.954,0.304 4.016,0.433 6.166,0.433l0,1.996c-3.995,-0 -7.208,-0.021 -9.637,-0.088c-2.388,-0.041 -4.425,-0.129 -6.163,-0.258c-1.737,-0.175 -3.362,-0.283 -4.862,-0.35c-1.517,-0.042 -3.342,-0.083 -5.467,-0.083c-2.258,-0 -4.146,0.041 -5.641,0.083c-1.455,0.067 -3.042,0.175 -4.775,0.35c-1.696,0.129 -3.734,0.217 -6.163,0.258c-2.387,0.067 -5.558,0.088 -9.55,0.088l0,-1.996c2.125,-0 4.167,-0.129 6.075,-0.433c1.913,-0.35 3.583,-0.98 5.038,-1.913c1.495,-0.975 2.687,-2.279 3.558,-3.904c0.867,-1.671 1.3,-3.908 1.3,-6.683l-0,-103.475c-0,-2.821 -0.433,-5.055 -1.3,-6.684c-0.871,-1.671 -2.063,-2.971 -3.558,-3.904c-1.455,-0.912 -3.125,-1.562 -5.038,-1.912c-1.908,-0.346 -3.95,-0.521 -6.075,-0.521l0,-1.996Zm36.283,67.45l9.984,-0c10.762,-0 18.791,-2.908 24.133,-8.767c5.317,-5.841 7.983,-14.433 7.983,-25.783c0,-4.1 -0.67,-7.942 -1.995,-11.546c-1.346,-3.579 -3.275,-6.725 -5.817,-9.462c-2.558,-2.713 -5.683,-4.859 -9.375,-6.421c-3.708,-1.609 -7.896,-2.434 -12.583,-2.434c-1.042,0 -2.305,0.046 -3.734,0.088c-1.454,0.067 -2.821,0.35 -4.079,0.871c-1.283,0.521 -2.346,1.3 -3.212,2.341c-0.871,1 -1.305,2.346 -1.305,4.08l0,57.033Z" style="fill:#cbc7b7;fill-rule:nonzero;"/></g></g><g><g><path d="M586.113,988.771c3.992,-0 7.162,0.067 9.55,0.175c2.429,0.062 4.467,0.15 6.162,0.258c1.734,0.134 3.321,0.217 4.775,0.263c1.496,0.062 3.384,0.087 5.642,0.087c2.125,0 3.95,-0.025 5.467,-0.087c1.5,-0.046 3.125,-0.129 4.862,-0.263c1.738,-0.108 3.775,-0.196 6.163,-0.258c2.429,-0.108 5.641,-0.175 9.637,-0.175l0,1.996c-2.15,-0 -4.212,0.175 -6.166,0.521c-1.909,0.35 -3.6,1 -5.034,1.912c-1.454,0.933 -2.604,2.233 -3.471,3.904c-0.87,1.629 -1.304,3.863 -1.304,6.684l0,103.475c0,2.775 0.434,5.012 1.304,6.683c0.867,1.625 2.017,2.929 3.471,3.904c1.434,0.933 3.125,1.563 5.034,1.913c1.954,0.304 4.016,0.433 6.166,0.433l0,1.996c-3.996,-0 -7.208,-0.021 -9.637,-0.088c-2.388,-0.041 -4.425,-0.129 -6.163,-0.258c-1.737,-0.175 -3.362,-0.283 -4.862,-0.35c-1.517,-0.042 -3.342,-0.083 -5.467,-0.083c-2.258,-0 -4.146,0.041 -5.642,0.083c-1.454,0.067 -3.041,0.175 -4.775,0.35c-1.695,0.129 -3.733,0.217 -6.162,0.258c-2.388,0.067 -5.558,0.088 -9.55,0.088l-0,-1.996c2.125,-0 4.167,-0.129 6.075,-0.433c1.912,-0.35 3.583,-0.98 5.037,-1.913c1.496,-0.975 2.688,-2.279 3.559,-3.904c0.866,-1.671 1.3,-3.908 1.3,-6.683l-0,-103.475c-0,-2.821 -0.434,-5.055 -1.3,-6.684c-0.871,-1.671 -2.063,-2.971 -3.559,-3.904c-1.454,-0.912 -3.125,-1.562 -5.037,-1.912c-1.908,-0.346 -3.95,-0.521 -6.075,-0.521l-0,-1.996Z" style="fill:#cbc7b7;fill-rule:nonzero;"/></g></g><g><g><path d="M725.863,986.429c9.592,0 18.662,1.625 27.171,4.859c8.508,3.258 15.996,7.9 22.483,13.979c6.533,6.029 11.675,13.346 15.45,21.958c3.821,8.575 5.729,18.1 5.729,28.563c0,10.762 -1.908,20.395 -5.729,28.904c-3.775,8.508 -8.896,15.775 -15.362,21.787c-6.425,5.967 -13.934,10.546 -22.484,13.717c-8.571,3.167 -17.666,4.775 -27.258,4.775c-10.2,-0 -19.617,-1.629 -28.296,-4.863c-8.637,-3.233 -16.146,-7.854 -22.571,-13.887c-6.379,-6.079 -11.35,-13.392 -14.929,-21.963c-3.604,-8.616 -5.383,-18.229 -5.383,-28.821c-0,-10.112 1.779,-19.4 5.383,-27.862c3.579,-8.442 8.525,-15.713 14.842,-21.788c6.358,-6.12 13.887,-10.875 22.571,-14.237c8.72,-3.408 18.183,-5.121 28.383,-5.121Zm-0,3.383c-7.813,0 -14.754,1.825 -20.833,5.471c-6.034,3.646 -11.067,8.55 -15.105,14.671c-4.058,6.075 -7.116,13.104 -9.2,21.092c-2.041,7.987 -3.037,16.233 -3.037,24.741c-0,9.025 0.996,17.534 3.037,25.521c2.084,7.984 5.142,14.929 9.2,20.834c4.038,5.9 9.071,10.587 15.105,14.062c6.079,3.471 13.02,5.208 20.833,5.208c7.467,0 14.15,-1.675 20.054,-5.037c5.9,-3.408 10.892,-8.029 15.017,-13.888c4.166,-5.837 7.333,-12.783 9.55,-20.833c2.191,-8.029 3.296,-16.667 3.296,-25.867c-0,-9.029 -1.105,-17.558 -3.296,-25.608c-2.217,-8.029 -5.384,-15.042 -9.55,-21.008c-4.125,-6.013 -9.117,-10.721 -15.017,-14.15c-5.904,-3.471 -12.587,-5.209 -20.054,-5.209Z" style="fill:#cbc7b7;fill-rule:nonzero;"/></g></g><g><g><path d="M813.059,988.771c3.991,-0 7.162,0.067 9.55,0.175c2.429,0.062 4.446,0.087 6.075,0.087c1.671,0 3.233,0.042 4.687,0.088c1.496,0.062 3.3,0.083 5.384,0.083c3.47,0 7.483,-0.171 12.062,-0.521c4.625,-0.345 9.725,-0.52 15.279,-0.52c5.209,-0 10.613,0.412 16.234,1.216c5.662,0.825 10.85,2.429 15.537,4.863c4.729,2.387 8.638,5.791 11.721,10.241c3.058,4.471 4.6,10.33 4.6,17.621c-0,4.925 -1.021,9.375 -3.038,13.371c-1.975,3.992 -4.604,7.463 -7.9,10.417c-3.258,2.904 -6.987,5.291 -11.2,7.204c-4.166,1.908 -8.42,3.212 -12.758,3.904c1.321,1.738 3.646,4.6 6.942,8.596c3.3,3.992 6.987,8.483 11.112,13.454c4.167,4.992 8.463,10.113 12.934,15.363c4.45,5.208 8.462,9.895 12.066,14.062c3.059,3.429 5.946,6.229 8.679,8.421c2.713,2.212 5.73,3.3 9.03,3.3l-0,1.996c-2.909,-0 -5.25,-0.021 -7.03,-0.088c-1.804,-0.041 -3.3,-0.108 -4.516,-0.171c-1.213,-0.112 -2.342,-0.195 -3.384,-0.262c-1.041,-0.042 -2.387,-0.088 -3.995,-0.088c-1.625,0 -3.017,0.046 -4.167,0.088c-1.104,0.067 -2.146,0.15 -3.125,0.262c-0.996,0.063 -2.083,0.13 -3.296,0.171c-1.175,0.067 -2.692,0.088 -4.6,0.088c-4.125,-5.209 -7.9,-10.092 -11.375,-14.671c-3.429,-4.558 -6.812,-9.05 -10.154,-13.454c-3.3,-4.384 -6.683,-8.813 -10.158,-13.279c-3.471,-4.45 -7.184,-9.205 -11.109,-14.238c-2.041,-2.542 -3.779,-4.296 -5.208,-5.296c-1.454,-0.975 -3.713,-1.475 -6.771,-1.475l-1.825,0l0,47.484c0,2.775 0.433,5.012 1.304,6.683c0.867,1.625 2.017,2.929 3.471,3.904c1.433,0.933 3.125,1.563 5.033,1.913c1.955,0.304 4.017,0.433 6.167,0.433l0,1.996c-3.996,-0 -7.208,-0.021 -9.637,-0.088c-2.388,-0.041 -4.425,-0.129 -6.163,-0.258c-1.737,-0.175 -3.362,-0.283 -4.862,-0.35c-1.517,-0.042 -3.342,-0.083 -5.467,-0.083c-2.258,-0 -4.146,0.041 -5.642,0.083c-1.454,0.067 -3.041,0.175 -4.775,0.35c-1.696,0.129 -3.733,0.217 -6.162,0.258c-2.388,0.067 -5.559,0.088 -9.55,0.088l-0,-1.996c2.125,-0 4.166,-0.129 6.075,-0.433c1.912,-0.35 3.583,-0.98 5.037,-1.913c1.496,-0.975 2.688,-2.279 3.559,-3.904c0.866,-1.671 1.3,-3.908 1.3,-6.683l-0,-103.475c-0,-2.821 -0.434,-5.055 -1.3,-6.684c-0.871,-1.671 -2.063,-2.971 -3.559,-3.904c-1.454,-0.912 -3.125,-1.562 -5.037,-1.912c-1.909,-0.346 -3.95,-0.521 -6.075,-0.521l-0,-1.996Zm36.283,67.45l9.983,-0c10.763,-0 18.792,-2.908 24.134,-8.767c5.316,-5.841 7.983,-14.433 7.983,-25.783c0,-4.1 -0.671,-7.942 -1.996,-11.546c-1.346,-3.579 -3.275,-6.725 -5.816,-9.462c-2.559,-2.713 -5.684,-4.859 -9.375,-6.421c-3.709,-1.609 -7.896,-2.434 -12.584,-2.434c-1.041,0 -2.304,0.046 -3.733,0.088c-1.454,0.067 -2.821,0.35 -4.079,0.871c-1.284,0.521 -2.346,1.3 -3.213,2.341c-0.871,1 -1.304,2.346 -1.304,4.08l0,57.033Z" style="fill:#cbc7b7;fill-rule:nonzero;"/></g></g><g><g><path d="M1021.61,989.033c-0,2.255 -0.046,4.642 -0.088,7.117c-0.067,2.429 -0.087,4.838 -0.087,7.204c-0,2.563 0.175,5.425 0.52,8.596c0.346,3.188 0.521,6.163 0.521,8.942l-2.429,-0c-0.412,-3.821 -1.475,-7.575 -3.212,-11.288c-1.738,-3.754 -3.971,-7.116 -6.684,-10.066c-2.737,-2.996 -5.904,-5.405 -9.55,-7.209c-3.646,-1.841 -7.683,-2.775 -12.066,-2.775c-3.471,0 -6.725,0.671 -9.721,1.996c-2.95,1.346 -5.513,3.104 -7.638,5.296c-2.083,2.212 -3.733,4.837 -4.95,7.9c-1.216,3.079 -1.821,6.25 -1.821,9.546c0,4.925 1.234,9.029 3.73,12.329c2.541,3.254 5.754,5.987 9.637,8.246c3.863,2.254 8.071,4.296 12.588,6.075c4.512,1.8 8.766,3.687 12.758,5.641c4.104,2.15 7.987,4.43 11.633,6.859c3.646,2.387 6.792,5.1 9.463,8.158c2.646,3.083 4.775,6.642 6.337,10.679c1.604,4.059 2.429,8.854 2.429,14.409c0,5.62 -1.129,10.741 -3.387,15.366c-2.254,4.642 -5.379,8.638 -9.375,11.979c-3.992,3.296 -8.721,5.9 -14.146,7.813c-5.45,1.841 -11.417,2.775 -17.883,2.775c-6.663,-0 -12.629,-1.104 -17.884,-3.296c-5.27,-2.192 -10.479,-5.038 -15.625,-8.508l-4.6,7.812l-1.995,0c-0,-4.167 0.041,-7.421 0.175,-9.808c0.108,-2.367 0.17,-4.883 0.17,-7.554c0,-2.775 -0.062,-5.771 -0.17,-9.025c-0.134,-3.3 -0.175,-7.075 -0.175,-11.371l2.341,-0c0.284,5.096 1.325,9.937 3.125,14.496c1.779,4.579 4.254,8.591 7.379,12.066c3.125,3.471 6.88,6.292 11.288,8.417c4.383,2.083 9.375,3.125 14.929,3.125c4.1,0 7.988,-0.65 11.633,-1.996c3.688,-1.325 6.9,-3.212 9.634,-5.641c2.712,-2.475 4.816,-5.384 6.337,-8.68c1.563,-3.341 2.342,-6.987 2.342,-10.937c-0,-4.167 -1.017,-7.838 -3.038,-11.025c-1.975,-3.171 -4.512,-5.992 -7.637,-8.421c-3.125,-2.475 -6.642,-4.687 -10.504,-6.596c-3.821,-1.954 -7.55,-3.779 -11.196,-5.471c-4.233,-2.016 -8.4,-4.208 -12.5,-6.595c-4.125,-2.43 -7.813,-5.23 -11.113,-8.421c-3.254,-3.167 -5.883,-6.859 -7.9,-11.025c-1.975,-4.209 -2.95,-9.159 -2.95,-14.842c0,-4.796 0.996,-9.312 3.038,-13.542c2.083,-4.275 4.862,-8.008 8.333,-11.2c3.471,-3.166 7.467,-5.683 11.979,-7.55c4.513,-1.912 9.221,-2.866 14.15,-2.866c5.034,-0 9.85,0.912 14.496,2.691c4.688,1.8 9.071,4.384 13.196,7.725l4.167,-7.55l1.996,0Z" style="fill:#cbc7b7;fill-rule:nonzero;"/></g></g><g><g><path d="M553.268,13.888c-0,11.241 -0.175,22.962 -0.521,35.158c-0.346,12.15 -0.521,24.196 -0.521,36.108c0,12.5 0.804,26.696 2.429,42.538c1.671,15.796 2.517,30.641 2.517,44.529l-11.892,-0c-1.975,-19.142 -7.245,-37.954 -15.795,-56.421c-8.575,-18.45 -19.621,-35.092 -33.163,-49.917c-13.542,-14.862 -29.404,-26.758 -47.567,-35.675c-18.12,-8.9 -38.066,-13.366 -59.812,-13.366c-17.142,-0 -33.138,3.296 -48,9.896c-14.825,6.595 -27.521,15.341 -38.108,26.212c-10.55,10.896 -18.796,23.938 -24.742,39.15c-5.9,15.171 -8.854,30.992 -8.854,47.483c-0,24.371 6.25,44.663 18.75,60.85c12.546,16.146 28.387,29.838 47.483,41.059c19.142,11.241 39.929,21.312 62.325,30.208c22.442,8.854 43.579,18.229 63.371,28.125c20.483,10.592 39.779,21.833 57.9,33.683c18.162,11.867 33.854,25.409 47.046,40.625c13.196,15.167 23.721,32.813 31.6,52.95c7.921,20.096 11.891,43.988 11.891,71.7c0,27.734 -5.62,53.125 -16.841,76.217c-11.175,23.092 -26.65,42.883 -46.442,59.375c-19.792,16.492 -43.229,29.383 -70.312,38.629c-27.038,9.2 -56.725,13.8 -89.063,13.8c-32.983,0 -62.5,-5.446 -88.542,-16.316c-26.041,-10.875 -51.954,-24.917 -77.691,-42.105l-22.742,38.63l-9.896,-0c0,-20.484 0.304,-36.655 0.954,-48.525c0.696,-11.846 1.042,-24.392 1.042,-37.584c0,-13.825 -0.346,-28.821 -1.042,-44.966c-0.65,-16.192 -0.954,-34.855 -0.954,-55.992l11.892,-0c1.325,25.067 6.425,49.004 15.279,71.792c8.896,22.741 21.117,42.708 36.633,59.895c15.492,17.142 34.134,30.988 55.9,41.58c21.813,10.545 46.55,15.795 74.221,15.795c20.484,0 39.779,-3.295 57.9,-9.895c18.163,-6.596 33.984,-15.992 47.479,-28.209c13.542,-12.2 24.092,-26.562 31.688,-43.058c7.571,-16.492 11.371,-34.633 11.371,-54.425c-0,-20.488 -4.95,-38.629 -14.846,-54.429c-9.896,-15.842 -22.613,-29.884 -38.108,-42.1c-15.45,-12.196 -32.767,-23.092 -51.909,-32.638c-19.162,-9.55 -37.629,-18.6 -55.383,-27.171c-21.138,-9.895 -41.925,-20.77 -62.413,-32.637c-20.441,-11.917 -38.758,-25.783 -54.945,-41.583c-16.146,-15.842 -29.167,-34.159 -39.063,-54.946c-9.896,-20.771 -14.846,-45.334 -14.846,-73.7c0,-23.784 5.121,-46.2 15.367,-67.271c10.242,-21.117 23.912,-39.608 41.058,-55.471c17.188,-15.842 36.979,-28.383 59.375,-37.587c22.438,-9.246 45.875,-13.888 70.313,-13.888c25.041,0 49.133,4.471 72.221,13.367c23.091,8.921 44.837,21.616 65.279,38.108l20.833,-37.587l9.896,-0Z" style="fill:#cbc7b7;fill-rule:nonzero;"/></g></g><g><g><path d="M821.405,720.308c-0,14.759 0.108,31.034 0.345,48.784c0.284,17.708 0.975,32.012 2.084,42.883c-19.096,1.692 -36.979,6.075 -53.646,13.196c-16.667,7.075 -33.9,14.558 -51.65,22.483c-17.708,7.942 -36.958,15.017 -57.725,21.267c-20.725,6.292 -44.446,9.462 -71.179,9.462c-39.888,0 -76.196,-6.687 -108.942,-20.054c-32.771,-13.412 -61.025,-32.4 -84.808,-56.946c-23.742,-24.587 -42.146,-53.925 -55.209,-88.02c-13.087,-34.134 -19.62,-71.959 -19.62,-113.455c-0,-40.908 7.337,-79.1 22.05,-114.583c14.758,-35.525 35.091,-66.1 61.025,-91.754c25.908,-25.692 56.358,-45.875 91.316,-60.588c34.942,-14.758 72.875,-22.137 113.804,-22.137c30.6,-0 59.288,4.517 86.025,13.542c26.734,8.983 52.105,21.4 76.13,37.241l19.704,-29.516l8.158,-0c-0.521,9.854 -1.217,18.187 -2.083,25c-0.825,6.837 -1.521,13 -2.084,18.491c-0.52,5.446 -1.041,10.634 -1.562,15.538c-0.521,4.862 -0.779,10.308 -0.779,16.321l-0,17.62c-0,4.642 0.108,9.55 0.346,14.759c0.283,5.162 0.433,11.587 0.433,19.271l-0,31.075l-9.808,-0c-2.213,-50.217 -18.73,-90.367 -49.567,-120.4c-30.858,-30.034 -73.046,-45.05 -126.563,-45.05c-22.916,-0 -45.833,5.879 -68.75,17.62c-22.916,11.763 -43.533,29.23 -61.804,52.43c-18.296,23.22 -33.204,52.15 -44.704,86.804c-11.458,34.679 -17.187,75.216 -17.187,121.616c-0,16.905 1.083,35.046 3.295,54.425c2.192,19.405 6.013,38.784 11.459,58.163c5.491,19.4 12.716,37.975 21.704,55.729c9.025,17.708 20.225,33.396 33.592,47.046c13.366,13.675 29.037,24.612 47.05,32.812c18.054,8.163 38.8,12.242 62.237,12.242c16.95,0 33.875,-2.454 50.783,-7.379c16.946,-4.904 32.246,-12.696 45.921,-23.35c13.65,-10.633 24.825,-24.004 33.504,-40.104c8.725,-16.146 13.109,-35.679 13.109,-58.596c-0,-26.733 -5.467,-45.833 -16.404,-57.292c-10.896,-11.458 -31.059,-17.187 -60.505,-17.187l0,-8.246c16.363,-0 29.884,0.154 40.538,0.433c10.633,0.304 20.05,0.738 28.212,1.304c8.2,0.521 15.842,0.934 22.917,1.217c7.117,0.238 15.3,0.346 24.567,0.346c8.721,-0 16.362,-0.108 22.916,-0.346c6.596,-0.283 13.563,-0.696 20.917,-1.217c7.338,-0.566 16.063,-1 26.129,-1.304c10.113,-0.279 23.375,-0.433 39.759,-0.433l-0,8.246c-23.438,-0 -40.234,3.971 -50.346,11.896c-10.071,7.875 -15.104,24.108 -15.104,48.695Z" style="fill:#cbc7b7;fill-rule:nonzero;"/></g></g></svg>