<?xml version="1.0" encoding="UTF-8" standalone="no"?><!DOCTYPE svg PUBLIC "-//W3C//DTD SVG 1.1//EN" "http://www.w3.org/Graphics/SVG/1.1/DTD/svg11.dtd"><svg width="100%" height="100%" viewBox="0 0 1066 286" version="1.1" xmlns="http://www.w3.org/2000/svg" xmlns:xlink="http://www.w3.org/1999/xlink" xml:space="preserve" xmlns:serif="http://www.serif.com/" style="fill-rule:evenodd;clip-rule:evenodd;stroke-linejoin:round;stroke-miterlimit:2;"><g><g><path d="M252.374,92.58c3.141,-0 5.635,0.052 7.514,0.137c1.911,0.05 3.514,0.118 4.848,0.204c1.364,0.105 2.613,0.17 3.757,0.206c1.177,0.049 2.662,0.069 4.439,0.069c1.672,-0 3.108,-0.02 4.301,-0.069c1.18,-0.036 2.459,-0.101 3.826,-0.206c1.367,-0.086 2.97,-0.154 4.848,-0.204c1.911,-0.085 4.439,-0.137 7.583,-0.137l-0,1.57c-1.692,-0 -3.315,0.138 -4.852,0.41c-1.502,0.275 -2.833,0.786 -3.96,1.504c-1.144,0.735 -2.049,1.758 -2.731,3.072c-0.685,1.282 -1.026,3.039 -1.026,5.258l-0,81.411c-0,2.184 0.341,3.944 1.026,5.259c0.682,1.278 1.587,2.304 2.731,3.071c1.127,0.735 2.458,1.23 3.96,1.505c1.537,0.239 3.16,0.341 4.852,0.341l-0,1.57c-3.144,0 -5.672,-0.016 -7.583,-0.069c-1.878,-0.032 -3.481,-0.101 -4.848,-0.203c-1.367,-0.138 -2.646,-0.223 -3.826,-0.275c-1.193,-0.033 -2.629,-0.066 -4.301,-0.066c-1.777,0 -3.262,0.033 -4.439,0.066c-1.144,0.052 -2.393,0.137 -3.757,0.275c-1.334,0.102 -2.937,0.171 -4.848,0.203c-1.879,0.053 -4.373,0.069 -7.514,0.069l0,-1.57c1.672,-0 3.278,-0.102 4.78,-0.341c1.505,-0.275 2.819,-0.77 3.963,-1.505c1.177,-0.767 2.115,-1.793 2.8,-3.071c0.682,-1.315 1.023,-3.075 1.023,-5.259l-0,-81.411c-0,-2.219 -0.341,-3.976 -1.023,-5.258c-0.685,-1.314 -1.623,-2.337 -2.8,-3.072c-1.144,-0.718 -2.458,-1.229 -3.963,-1.504c-1.502,-0.272 -3.108,-0.41 -4.78,-0.41l0,-1.57Z" style="fill:#cbc7b7;fill-rule:nonzero;"/></g></g><g><g><path d="M306.664,195.981c1.672,-0 3.278,-0.102 4.779,-0.341c1.505,-0.275 2.82,-0.77 3.964,-1.505c1.177,-0.767 2.117,-1.793 2.799,-3.071c0.682,-1.315 1.023,-3.075 1.023,-5.259l0,-80.657l-3.481,-4.373c-1.469,-1.911 -3.056,-3.481 -4.78,-4.711c-1.744,-1.265 -3.947,-1.914 -6.625,-1.914l-0,-1.57c1.858,-0 3.481,0.052 4.848,0.137c1.367,0.05 2.596,0.102 3.688,0.138c1.092,0.049 2.065,0.102 2.937,0.134c0.905,0.053 1.928,0.069 3.072,0.069c1.043,0 1.931,-0.016 2.665,-0.069c0.715,-0.032 1.449,-0.085 2.184,-0.134c0.717,-0.036 1.504,-0.088 2.324,-0.138c0.852,-0.085 1.927,-0.137 3.209,-0.137l65.223,80.316l0,-68.502c0,-2.219 -0.34,-3.976 -1.026,-5.258c-0.681,-1.314 -1.603,-2.337 -2.73,-3.072c-1.144,-0.718 -2.495,-1.229 -4.029,-1.504c-1.505,-0.272 -3.075,-0.41 -4.714,-0.41l-0,-1.57c2.049,-0 3.704,0.052 4.986,0.137c1.262,0.05 2.357,0.102 3.278,0.138c0.957,0.049 1.846,0.102 2.665,0.134c0.853,0.053 1.859,0.069 3.003,0.069c1.128,0 2.118,-0.016 2.937,-0.069c0.853,-0.032 1.741,-0.085 2.665,-0.134c0.954,-0.036 2.082,-0.088 3.413,-0.138c1.315,-0.085 3.023,-0.137 5.124,-0.137l-0,1.57c-1.692,-0 -3.314,0.138 -4.849,0.41c-1.504,0.275 -2.835,0.786 -3.963,1.504c-1.144,0.735 -2.049,1.758 -2.731,3.072c-0.681,1.282 -1.026,3.039 -1.026,5.258l0,95.068l-2.799,0l-72.531,-90.832l0,77.175c0,2.184 0.341,3.944 1.026,5.259c0.682,1.278 1.587,2.304 2.731,3.071c1.177,0.735 2.528,1.23 4.029,1.505c1.505,0.239 3.091,0.341 4.783,0.341l-0,1.57c-2.101,0 -3.809,-0.016 -5.124,-0.069c-1.282,-0.032 -2.39,-0.085 -3.347,-0.134c-0.954,-0.089 -1.842,-0.154 -2.662,-0.207c-0.819,-0.032 -1.829,-0.068 -3.006,-0.068c-1.144,-0 -2.15,0.036 -3.006,0.068c-0.82,0.053 -1.705,0.118 -2.662,0.207c-0.921,0.049 -2.016,0.102 -3.278,0.134c-1.23,0.053 -2.905,0.069 -4.986,0.069l-0,-1.57Z" style="fill:#cbc7b7;fill-rule:nonzero;"/></g></g><g><g><path d="M443.016,195.981c1.671,-0 3.278,-0.102 4.779,-0.341c1.505,-0.275 2.819,-0.77 3.964,-1.505c1.176,-0.767 2.114,-1.793 2.799,-3.071c0.682,-1.315 1.023,-3.075 1.023,-5.259l-0,-90.219c-5.976,-0.223 -10.277,-0.377 -12.906,-0.479c-2.597,-0.085 -4.167,-0.138 -4.714,-0.138c-6.147,0.105 -10.619,2.017 -13.385,5.737c-2.784,3.688 -4.37,8.52 -4.78,14.48l-1.574,0l0.754,-22.878c2.407,-0.138 4.642,-0.207 6.691,-0.207l5.737,0c4.183,0 7.855,0.069 10.995,0.207c3.144,0.101 5.944,0.17 8.402,0.203c2.459,0.052 4.662,0.138 6.626,0.275c1.996,0.102 3.976,0.135 5.94,0.135c1.999,-0 3.979,-0.033 5.943,-0.135c1.997,-0.137 4.252,-0.223 6.76,-0.275c2.544,-0.033 5.412,-0.102 8.605,-0.203c3.177,-0.138 6.966,-0.207 11.339,-0.207l5.941,0c2.081,0 4.337,0.069 6.762,0.207l0.954,22.878l-1.57,0c-0.187,-2.596 -0.665,-5.12 -1.432,-7.579c-0.735,-2.459 -1.83,-4.645 -3.279,-6.556c-1.468,-1.948 -3.33,-3.502 -5.602,-4.646c-2.236,-1.18 -4.917,-1.776 -8.058,-1.776c-0.511,-0 -2.17,0.101 -4.986,0.275c-2.836,0.134 -7.222,0.374 -13.182,0.682l0,90.219c0,2.184 0.341,3.944 1.026,5.259c0.682,1.278 1.587,2.304 2.731,3.071c1.128,0.735 2.459,1.23 3.96,1.505c1.538,0.239 3.16,0.341 4.852,0.341l-0,1.57c-3.144,0 -5.671,-0.016 -7.583,-0.069c-1.878,-0.032 -3.481,-0.101 -4.848,-0.203c-1.367,-0.138 -2.646,-0.223 -3.826,-0.275c-1.193,-0.033 -2.629,-0.066 -4.301,-0.066c-1.777,0 -3.262,0.033 -4.438,0.066c-1.145,0.052 -2.394,0.137 -3.757,0.275c-1.367,0.102 -2.99,0.171 -4.849,0.203c-1.878,0.053 -4.373,0.069 -7.513,0.069l-0,-1.57Z" style="fill:#cbc7b7;fill-rule:nonzero;"/></g></g><g><g><path d="M557.838,141.891c4.731,-0 8.212,-1.181 10.451,-3.551c2.219,-2.357 3.347,-5.687 3.347,-9.972l1.57,-0c0,2.422 -0.036,4.422 -0.068,6.009c-0.053,1.554 -0.102,2.852 -0.138,3.894c-0.049,1.059 -0.118,1.944 -0.203,2.662c-0.053,0.735 -0.069,1.505 -0.069,2.325c-0,0.868 0.016,1.639 0.069,2.32c0.085,0.65 0.154,1.469 0.203,2.459c0.036,1.007 0.085,2.288 0.138,3.826c0.032,1.501 0.068,3.465 0.068,5.871l-1.57,0c0,-4.098 -1.128,-7.307 -3.347,-9.628c-2.239,-2.357 -5.72,-3.554 -10.451,-3.554l-10.654,0l-0,34.012c-0,3.793 0.341,6.812 1.026,9.084c0.682,2.236 1.878,3.894 3.619,4.986c1.725,1.092 3.996,1.809 6.829,2.118c2.819,0.324 6.369,0.478 10.654,0.478c3.773,0 7.307,-0.137 10.585,-0.41c3.278,-0.275 6.167,-1.026 8.674,-2.255c2.544,-1.262 4.61,-3.226 6.216,-5.871c1.639,-2.682 2.665,-6.386 3.075,-11.133l1.704,0l-1.229,21.99c-4.747,0.085 -8.93,0.154 -12.565,0.207c-3.655,0.085 -7.615,0.134 -11.884,0.134c-8.93,0 -16.119,-0.134 -21.58,-0.41c-5.432,-0.272 -9.802,-0.409 -13.113,-0.409c-1.692,-0 -3.144,0.036 -4.373,0.068c-1.193,0.053 -2.459,0.118 -3.823,0.207c-1.334,0.049 -2.937,0.102 -4.848,0.134c-1.878,0.053 -4.373,0.069 -7.514,0.069l0,-1.57c1.672,-0 3.279,-0.102 4.78,-0.341c1.505,-0.275 2.819,-0.77 3.963,-1.505c1.177,-0.767 2.115,-1.793 2.8,-3.071c0.682,-1.315 1.023,-3.075 1.023,-5.259l-0,-81.411c-0,-2.219 -0.341,-3.976 -1.023,-5.258c-0.685,-1.314 -1.623,-2.337 -2.8,-3.072c-1.144,-0.718 -2.458,-1.229 -3.963,-1.504c-1.501,-0.272 -3.108,-0.41 -4.78,-0.41l0,-1.57c3.141,-0 5.616,0.052 7.445,0.137c1.81,0.05 3.38,0.102 4.711,0.138c1.314,0.049 2.544,0.102 3.688,0.134c1.128,0.053 2.544,0.069 4.235,0.069c3.551,0 7.855,-0.154 12.907,-0.478c5.087,-0.308 10.792,-0.479 17.076,-0.479c4.045,0 7.717,0.069 10.995,0.207c3.311,0.101 7.068,0.186 11.267,0.272l0.957,20.42l-1.57,-0c-0.324,-3.96 -1.16,-7.137 -2.527,-9.56c-1.367,-2.409 -3.21,-4.235 -5.531,-5.464c-2.288,-1.263 -4.953,-2.118 -7.992,-2.528c-3.006,-0.442 -6.35,-0.682 -10.038,-0.682c-0.924,0 -2.016,0.049 -3.278,0.138c-1.229,0.049 -2.495,0.102 -3.757,0.134c-1.282,0.053 -2.495,0.138 -3.619,0.276c-1.144,0.101 -2.085,0.187 -2.803,0.272c-2.422,0.324 -3.619,1.741 -3.619,4.235l-0,42.07l10.654,-0Z" style="fill:#cbc7b7;fill-rule:nonzero;"/></g></g><g><g><path d="M609.326,92.58c3.14,-0 5.635,0.052 7.513,0.137c1.912,0.05 3.498,0.069 4.78,0.069c1.315,0 2.544,0.033 3.688,0.069c1.177,0.049 2.596,0.066 4.235,0.066c2.731,-0 5.888,-0.135 9.491,-0.41c3.639,-0.272 7.651,-0.41 12.021,-0.41c4.098,0 8.35,0.325 12.772,0.957c4.455,0.649 8.536,1.911 12.224,3.826c3.721,1.878 6.796,4.557 9.222,8.058c2.406,3.517 3.619,8.126 3.619,13.863c0,3.875 -0.803,7.376 -2.39,10.52c-1.554,3.141 -3.622,5.871 -6.215,8.196c-2.564,2.285 -5.498,4.163 -8.812,5.668c-3.278,1.501 -6.625,2.527 -10.038,3.071c1.039,1.367 2.869,3.62 5.462,6.763c2.596,3.141 5.497,6.675 8.743,10.586c3.278,3.927 6.658,7.956 10.175,12.086c3.501,4.098 6.658,7.786 9.494,11.064c2.406,2.698 4.678,4.901 6.828,6.626c2.135,1.74 4.508,2.596 7.104,2.596l0,1.57c-2.288,0 -4.13,-0.016 -5.53,-0.069c-1.42,-0.032 -2.596,-0.085 -3.554,-0.134c-0.954,-0.089 -1.842,-0.154 -2.662,-0.207c-0.819,-0.032 -1.878,-0.068 -3.143,-0.068c-1.279,-0 -2.374,0.036 -3.279,0.068c-0.868,0.053 -1.688,0.118 -2.458,0.207c-0.784,0.049 -1.639,0.102 -2.593,0.134c-0.925,0.053 -2.118,0.069 -3.619,0.069c-3.246,-4.098 -6.216,-7.94 -8.95,-11.542c-2.698,-3.587 -5.36,-7.121 -7.989,-10.586c-2.596,-3.448 -5.258,-6.933 -7.992,-10.447c-2.731,-3.501 -5.652,-7.242 -8.74,-11.202c-1.606,-2 -2.973,-3.38 -4.098,-4.167c-1.144,-0.767 -2.921,-1.16 -5.327,-1.16l-1.436,-0l0,37.358c0,2.184 0.341,3.944 1.026,5.259c0.682,1.278 1.587,2.304 2.731,3.071c1.128,0.735 2.459,1.23 3.96,1.505c1.538,0.239 3.16,0.341 4.852,0.341l0,1.57c-3.144,0 -5.671,-0.016 -7.582,-0.069c-1.879,-0.032 -3.482,-0.101 -4.849,-0.203c-1.367,-0.138 -2.645,-0.223 -3.826,-0.275c-1.193,-0.033 -2.629,-0.066 -4.301,-0.066c-1.776,0 -3.261,0.033 -4.438,0.066c-1.144,0.052 -2.393,0.137 -3.757,0.275c-1.334,0.102 -2.937,0.171 -4.849,0.203c-1.878,0.053 -4.373,0.069 -7.513,0.069l-0,-1.57c1.672,-0 3.278,-0.102 4.779,-0.341c1.505,-0.275 2.82,-0.77 3.964,-1.505c1.177,-0.767 2.114,-1.793 2.799,-3.071c0.682,-1.315 1.023,-3.075 1.023,-5.259l0,-81.411c0,-2.219 -0.341,-3.976 -1.023,-5.258c-0.685,-1.314 -1.622,-2.337 -2.799,-3.072c-1.144,-0.718 -2.459,-1.229 -3.964,-1.504c-1.501,-0.272 -3.107,-0.41 -4.779,-0.41l-0,-1.57Zm28.546,53.067l7.855,0c8.468,0 14.785,-2.288 18.987,-6.897c4.183,-4.596 6.281,-11.356 6.281,-20.286c0,-3.225 -0.527,-6.248 -1.57,-9.084c-1.059,-2.815 -2.577,-5.291 -4.576,-7.444c-2.013,-2.134 -4.472,-3.823 -7.376,-5.052c-2.918,-1.265 -6.212,-1.915 -9.9,-1.915c-0.82,0 -1.813,0.037 -2.938,0.069c-1.144,0.053 -2.219,0.276 -3.209,0.685c-1.01,0.41 -1.846,1.023 -2.528,1.843c-0.685,0.787 -1.026,1.845 -1.026,3.209l0,44.872Z" style="fill:#cbc7b7;fill-rule:nonzero;"/></g></g><g><g><path d="M713.511,92.58c3.14,-0 5.635,0.052 7.513,0.137c1.911,0.05 3.514,0.118 4.849,0.204c1.363,0.105 2.612,0.17 3.756,0.206c1.177,0.049 2.662,0.069 4.439,0.069c1.672,-0 3.108,-0.02 4.301,-0.069c1.18,-0.036 2.459,-0.101 3.826,-0.206c1.367,-0.086 2.97,-0.154 4.848,-0.204c1.912,-0.085 4.439,-0.137 7.583,-0.137l-0,1.57c-1.692,-0 -3.314,0.138 -4.852,0.41c-1.501,0.275 -2.832,0.786 -3.96,1.504c-1.144,0.735 -2.049,1.758 -2.731,3.072c-0.685,1.282 -1.026,3.039 -1.026,5.258l0,81.411c0,2.184 0.341,3.944 1.026,5.259c0.682,1.278 1.587,2.304 2.731,3.071c1.128,0.735 2.459,1.23 3.96,1.505c1.538,0.239 3.16,0.341 4.852,0.341l-0,1.57c-3.144,0 -5.671,-0.016 -7.583,-0.069c-1.878,-0.032 -3.481,-0.101 -4.848,-0.203c-1.367,-0.138 -2.646,-0.223 -3.826,-0.275c-1.193,-0.033 -2.629,-0.066 -4.301,-0.066c-1.777,0 -3.262,0.033 -4.439,0.066c-1.144,0.052 -2.393,0.137 -3.756,0.275c-1.335,0.102 -2.938,0.171 -4.849,0.203c-1.878,0.053 -4.373,0.069 -7.513,0.069l-0,-1.57c1.671,-0 3.278,-0.102 4.779,-0.341c1.505,-0.275 2.819,-0.77 3.964,-1.505c1.176,-0.767 2.114,-1.793 2.799,-3.071c0.682,-1.315 1.023,-3.075 1.023,-5.259l-0,-81.411c-0,-2.219 -0.341,-3.976 -1.023,-5.258c-0.685,-1.314 -1.623,-2.337 -2.799,-3.072c-1.145,-0.718 -2.459,-1.229 -3.964,-1.504c-1.501,-0.272 -3.108,-0.41 -4.779,-0.41l-0,-1.57Z" style="fill:#cbc7b7;fill-rule:nonzero;"/></g></g><g><g><path d="M823.462,90.737c7.546,0 14.683,1.279 21.377,3.823c6.694,2.563 12.585,6.215 17.689,10.998c5.14,4.744 9.186,10.5 12.156,17.276c3.006,6.747 4.507,14.241 4.507,22.472c0,8.468 -1.501,16.047 -4.507,22.741c-2.97,6.694 -6.999,12.412 -12.087,17.142c-5.055,4.695 -10.962,8.297 -17.689,10.792c-6.744,2.491 -13.9,3.757 -21.446,3.757c-8.025,-0 -15.434,-1.282 -22.263,-3.826c-6.795,-2.544 -12.703,-6.179 -17.758,-10.926c-5.019,-4.783 -8.93,-10.536 -11.746,-17.28c-2.835,-6.779 -4.235,-14.342 -4.235,-22.675c0,-7.956 1.4,-15.263 4.235,-21.921c2.816,-6.642 6.708,-12.362 11.677,-17.142c5.003,-4.816 10.927,-8.556 17.759,-11.202c6.861,-2.681 14.306,-4.029 22.331,-4.029Zm-0,2.662c-6.147,0 -11.608,1.436 -16.391,4.305c-4.747,2.868 -8.707,6.726 -11.884,11.542c-3.193,4.78 -5.599,10.31 -7.238,16.594c-1.606,6.285 -2.39,12.772 -2.39,19.466c0,7.101 0.784,13.795 2.39,20.079c1.639,6.281 4.045,11.746 7.238,16.391c3.177,4.642 7.137,8.33 11.884,11.064c4.783,2.731 10.244,4.098 16.391,4.098c5.874,0 11.133,-1.318 15.778,-3.963c4.642,-2.682 8.569,-6.317 11.814,-10.926c3.279,-4.593 5.77,-10.058 7.514,-16.391c1.724,-6.318 2.593,-13.113 2.593,-20.352c0,-7.103 -0.869,-13.814 -2.593,-20.147c-1.744,-6.318 -4.235,-11.835 -7.514,-16.529c-3.245,-4.731 -7.172,-8.435 -11.814,-11.133c-4.645,-2.731 -9.904,-4.098 -15.778,-4.098Z" style="fill:#cbc7b7;fill-rule:nonzero;"/></g></g><g><g><path d="M892.065,92.58c3.14,-0 5.635,0.052 7.513,0.137c1.912,0.05 3.498,0.069 4.78,0.069c1.315,0 2.544,0.033 3.688,0.069c1.177,0.049 2.596,0.066 4.236,0.066c2.73,-0 5.887,-0.135 9.49,-0.41c3.639,-0.272 7.651,-0.41 12.021,-0.41c4.098,0 8.35,0.325 12.772,0.957c4.455,0.649 8.537,1.911 12.225,3.826c3.72,1.878 6.795,4.557 9.221,8.058c2.406,3.517 3.619,8.126 3.619,13.863c0,3.875 -0.803,7.376 -2.39,10.52c-1.553,3.141 -3.622,5.871 -6.215,8.196c-2.564,2.285 -5.498,4.163 -8.812,5.668c-3.278,1.501 -6.625,2.527 -10.038,3.071c1.039,1.367 2.869,3.62 5.462,6.763c2.596,3.141 5.497,6.675 8.743,10.586c3.278,3.927 6.658,7.956 10.175,12.086c3.501,4.098 6.658,7.786 9.494,11.064c2.406,2.698 4.678,4.901 6.828,6.626c2.135,1.74 4.508,2.596 7.104,2.596l0,1.57c-2.288,0 -4.13,-0.016 -5.53,-0.069c-1.419,-0.032 -2.596,-0.085 -3.554,-0.134c-0.953,-0.089 -1.842,-0.154 -2.661,-0.207c-0.82,-0.032 -1.879,-0.068 -3.144,-0.068c-1.279,-0 -2.374,0.036 -3.278,0.068c-0.869,0.053 -1.689,0.118 -2.459,0.207c-0.784,0.049 -1.639,0.102 -2.593,0.134c-0.925,0.053 -2.118,0.069 -3.619,0.069c-3.246,-4.098 -6.216,-7.94 -8.95,-11.542c-2.698,-3.587 -5.36,-7.121 -7.989,-10.586c-2.596,-3.448 -5.258,-6.933 -7.992,-10.447c-2.731,-3.501 -5.652,-7.242 -8.74,-11.202c-1.606,-2 -2.973,-3.38 -4.098,-4.167c-1.144,-0.767 -2.92,-1.16 -5.327,-1.16l-1.436,-0l0,37.358c0,2.184 0.341,3.944 1.027,5.259c0.681,1.278 1.586,2.304 2.73,3.071c1.128,0.735 2.459,1.23 3.96,1.505c1.538,0.239 3.161,0.341 4.852,0.341l0,1.57c-3.144,0 -5.671,-0.016 -7.582,-0.069c-1.879,-0.032 -3.482,-0.101 -4.849,-0.203c-1.367,-0.138 -2.645,-0.223 -3.826,-0.275c-1.193,-0.033 -2.629,-0.066 -4.301,-0.066c-1.776,0 -3.261,0.033 -4.438,0.066c-1.144,0.052 -2.393,0.137 -3.757,0.275c-1.334,0.102 -2.937,0.171 -4.849,0.203c-1.878,0.053 -4.373,0.069 -7.513,0.069l-0,-1.57c1.672,-0 3.278,-0.102 4.779,-0.341c1.505,-0.275 2.82,-0.77 3.964,-1.505c1.177,-0.767 2.114,-1.793 2.799,-3.071c0.682,-1.315 1.023,-3.075 1.023,-5.259l0,-81.411c0,-2.219 -0.341,-3.976 -1.023,-5.258c-0.685,-1.314 -1.622,-2.337 -2.799,-3.072c-1.144,-0.718 -2.459,-1.229 -3.964,-1.504c-1.501,-0.272 -3.107,-0.41 -4.779,-0.41l-0,-1.57Zm28.546,53.067l7.855,0c8.468,0 14.785,-2.288 18.987,-6.897c4.183,-4.596 6.282,-11.356 6.282,-20.286c-0,-3.225 -0.528,-6.248 -1.571,-9.084c-1.059,-2.815 -2.576,-5.291 -4.576,-7.444c-2.013,-2.134 -4.472,-3.823 -7.376,-5.052c-2.918,-1.265 -6.212,-1.915 -9.9,-1.915c-0.82,0 -1.813,0.037 -2.938,0.069c-1.144,0.053 -2.219,0.276 -3.209,0.685c-1.01,0.41 -1.846,1.023 -2.527,1.843c-0.686,0.787 -1.027,1.845 -1.027,3.209l0,44.872Z" style="fill:#cbc7b7;fill-rule:nonzero;"/></g></g><g><g><path d="M1056.14,92.786c-0,1.774 -0.037,3.652 -0.069,5.599c-0.053,1.912 -0.069,3.806 -0.069,5.668c-0,2.016 0.138,4.269 0.41,6.763c0.272,2.508 0.409,4.849 0.409,7.035l-1.911,0c-0.324,-3.006 -1.16,-5.959 -2.527,-8.88c-1.367,-2.954 -3.124,-5.599 -5.259,-7.92c-2.153,-2.357 -4.645,-4.252 -7.513,-5.672c-2.869,-1.449 -6.045,-2.183 -9.494,-2.183c-2.731,-0 -5.291,0.528 -7.648,1.57c-2.321,1.059 -4.337,2.442 -6.009,4.167c-1.639,1.741 -2.937,3.806 -3.894,6.215c-0.958,2.423 -1.433,4.918 -1.433,7.511c-0,3.875 0.97,7.104 2.934,9.7c2,2.56 4.527,4.711 7.582,6.488c3.039,1.773 6.35,3.379 9.904,4.779c3.55,1.416 6.897,2.901 10.038,4.439c3.229,1.691 6.284,3.485 9.153,5.396c2.868,1.878 5.343,4.012 7.444,6.419c2.082,2.425 3.757,5.225 4.987,8.402c1.262,3.193 1.911,6.966 1.911,11.336c-0,4.422 -0.889,8.451 -2.665,12.09c-1.774,3.652 -4.233,6.795 -7.376,9.425c-3.141,2.593 -6.862,4.641 -11.13,6.146c-4.288,1.449 -8.982,2.183 -14.07,2.183c-5.242,0 -9.936,-0.868 -14.07,-2.593c-4.147,-1.724 -8.245,-3.963 -12.293,-6.694l-3.62,6.147l-1.57,-0c0,-3.278 0.033,-5.839 0.138,-7.717c0.085,-1.862 0.134,-3.842 0.134,-5.943c0,-2.184 -0.049,-4.541 -0.134,-7.101c-0.105,-2.596 -0.138,-5.566 -0.138,-8.946l1.843,-0c0.222,4.009 1.042,7.818 2.458,11.405c1.4,3.602 3.347,6.759 5.806,9.493c2.459,2.731 5.412,4.95 8.881,6.622c3.448,1.639 7.376,2.459 11.745,2.459c3.226,-0 6.285,-0.511 9.153,-1.57c2.901,-1.043 5.429,-2.528 7.579,-4.439c2.135,-1.947 3.79,-4.235 4.987,-6.828c1.229,-2.63 1.842,-5.498 1.842,-8.606c-0,-3.278 -0.8,-6.166 -2.39,-8.674c-1.554,-2.495 -3.55,-4.714 -6.009,-6.625c-2.458,-1.947 -5.225,-3.688 -8.264,-5.19c-3.006,-1.537 -5.94,-2.973 -8.809,-4.304c-3.33,-1.587 -6.609,-3.311 -9.834,-5.189c-3.246,-1.911 -6.147,-4.114 -8.743,-6.626c-2.561,-2.491 -4.629,-5.395 -6.216,-8.674c-1.554,-3.311 -2.321,-7.205 -2.321,-11.677c0,-3.773 0.784,-7.326 2.39,-10.654c1.639,-3.363 3.826,-6.301 6.556,-8.812c2.731,-2.491 5.875,-4.471 9.425,-5.94c3.551,-1.505 7.255,-2.255 11.133,-2.255c3.96,-0 7.75,0.718 11.405,2.118c3.688,1.416 7.137,3.448 10.382,6.077l3.278,-5.94l1.571,0Z" style="fill:#cbc7b7;fill-rule:nonzero;"/></g></g><g><g><path d="M118.627,4.511c0,3.652 -0.057,7.459 -0.169,11.421c-0.112,3.947 -0.169,7.859 -0.169,11.729c-0,4.061 0.261,8.672 0.789,13.818c0.543,5.131 0.817,9.953 0.817,14.464l-3.862,0c-0.642,-6.217 -2.354,-12.328 -5.131,-18.327c-2.786,-5.993 -6.374,-11.399 -10.773,-16.215c-4.399,-4.828 -9.551,-8.692 -15.451,-11.588c-5.886,-2.891 -12.366,-4.342 -19.429,-4.342c-5.569,-0 -10.765,1.07 -15.592,3.214c-4.816,2.143 -8.94,4.984 -12.379,8.515c-3.427,3.539 -6.106,7.776 -8.037,12.717c-1.917,4.928 -2.877,10.068 -2.877,15.425c0,7.916 2.031,14.508 6.091,19.766c4.075,5.245 9.221,9.692 15.424,13.337c6.218,3.652 12.971,6.923 20.246,9.813c7.29,2.876 14.156,5.921 20.585,9.136c6.654,3.44 12.922,7.092 18.808,10.941c5.9,3.855 10.997,8.254 15.282,13.197c4.286,4.926 7.705,10.658 10.265,17.2c2.573,6.528 3.863,14.289 3.863,23.291c-0,9.008 -1.826,17.256 -5.471,24.757c-3.63,7.501 -8.657,13.93 -15.086,19.288c-6.429,5.357 -14.042,9.544 -22.84,12.548c-8.783,2.988 -18.426,4.482 -28.931,4.482c-10.714,0 -20.302,-1.769 -28.761,-5.3c-8.459,-3.532 -16.877,-8.094 -25.237,-13.677l-7.387,12.548l-3.215,0c-0,-6.653 0.099,-11.906 0.31,-15.762c0.226,-3.848 0.338,-7.924 0.338,-12.209c0,-4.491 -0.112,-9.362 -0.338,-14.606c-0.211,-5.26 -0.31,-11.322 -0.31,-18.189l3.863,0c0.43,8.143 2.087,15.919 4.963,23.321c2.89,7.387 6.859,13.873 11.9,19.456c5.032,5.568 11.088,10.066 18.158,13.507c7.086,3.425 15.121,5.131 24.11,5.131c6.653,-0 12.921,-1.071 18.808,-3.215c5.9,-2.142 11.039,-5.195 15.423,-9.163c4.398,-3.963 7.825,-8.628 10.293,-13.987c2.459,-5.357 3.694,-11.25 3.694,-17.679c-0,-6.655 -1.608,-12.548 -4.823,-17.68c-3.214,-5.146 -7.345,-9.708 -12.379,-13.676c-5.019,-3.962 -10.644,-7.501 -16.862,-10.602c-6.224,-3.102 -12.223,-6.042 -17.99,-8.826c-6.866,-3.214 -13.619,-6.747 -20.274,-10.602c-6.64,-3.871 -12.59,-8.375 -17.848,-13.507c-5.245,-5.146 -9.475,-11.096 -12.689,-17.849c-3.215,-6.747 -4.823,-14.726 -4.823,-23.94c0,-7.726 1.664,-15.008 4.992,-21.852c3.327,-6.86 7.768,-12.866 13.337,-18.019c5.583,-5.146 12.012,-9.22 19.287,-12.21c7.289,-3.003 14.902,-4.511 22.84,-4.511c8.135,-0 15.961,1.452 23.46,4.342c7.501,2.898 14.565,7.022 21.205,12.379l6.768,-12.21l3.214,0Z" style="fill:#cbc7b7;fill-rule:nonzero;"/></g></g><g><g><path d="M205.728,233.982c-0,4.794 0.035,10.08 0.112,15.846c0.092,5.753 0.317,10.399 0.677,13.93c-6.203,0.55 -12.013,1.974 -17.426,4.287c-5.414,2.298 -11.012,4.729 -16.778,7.303c-5.752,2.58 -12.006,4.878 -18.751,6.908c-6.733,2.044 -14.438,3.074 -23.122,3.074c-12.957,0 -24.751,-2.172 -35.388,-6.514c-10.645,-4.357 -19.823,-10.525 -27.549,-18.498c-7.712,-7.987 -13.69,-17.517 -17.933,-28.593c-4.252,-11.087 -6.374,-23.374 -6.374,-36.853c0,-13.289 2.384,-25.695 7.163,-37.221c4.794,-11.54 11.399,-21.472 19.823,-29.805c8.416,-8.346 18.307,-14.902 29.663,-19.681c11.35,-4.794 23.672,-7.191 36.967,-7.191c9.94,-0 19.259,1.467 27.944,4.399c8.684,2.918 16.926,6.951 24.73,12.097l6.4,-9.588l2.65,-0c-0.169,3.201 -0.395,5.908 -0.676,8.121c-0.268,2.221 -0.494,4.223 -0.677,6.007c-0.169,1.769 -0.338,3.454 -0.508,5.047c-0.169,1.579 -0.253,3.348 -0.253,5.301l0,5.724c0,1.508 0.036,3.102 0.113,4.794c0.092,1.677 0.14,3.764 0.14,6.26l0,10.094l-3.186,0c-0.718,-16.312 -6.084,-29.354 -16.101,-39.11c-10.024,-9.756 -23.728,-14.634 -41.112,-14.634c-7.444,0 -14.888,1.91 -22.332,5.724c-7.444,3.821 -14.141,9.495 -20.076,17.031c-5.943,7.543 -10.786,16.94 -14.522,28.197c-3.722,11.265 -5.583,24.433 -5.583,39.505c0,5.492 0.352,11.385 1.071,17.68c0.712,6.303 1.953,12.598 3.722,18.893c1.784,6.302 4.131,12.336 7.05,18.103c2.932,5.752 6.57,10.848 10.912,15.282c4.342,4.442 9.432,7.995 15.283,10.659c5.865,2.651 12.604,3.976 20.217,3.976c5.506,0 11.004,-0.797 16.497,-2.397c5.504,-1.593 10.474,-4.124 14.916,-7.585c4.434,-3.454 8.064,-7.797 10.884,-13.027c2.834,-5.245 4.258,-11.59 4.258,-19.034c-0,-8.684 -1.776,-14.888 -5.329,-18.61c-3.539,-3.723 -10.089,-5.584 -19.654,-5.584l0,-2.678c5.315,-0 9.707,0.05 13.168,0.141c3.454,0.098 6.513,0.239 9.165,0.423c2.663,0.169 5.145,0.303 7.444,0.395c2.311,0.078 4.97,0.113 7.98,0.113c2.833,-0 5.315,-0.035 7.444,-0.113c2.143,-0.092 4.406,-0.226 6.794,-0.395c2.384,-0.184 5.218,-0.325 8.488,-0.423c3.285,-0.091 7.593,-0.141 12.915,-0.141l0,2.678c-7.613,0 -13.069,1.29 -16.354,3.865c-3.271,2.558 -4.906,7.831 -4.906,15.818Z" style="fill:#cbc7b7;fill-rule:nonzero;"/></g></g></svg>