<?xml version="1.0" encoding="UTF-8" standalone="no"?>
<!DOCTYPE svg PUBLIC "-//W3C//DTD SVG 1.1//EN" "http://www.w3.org/Graphics/SVG/1.1/DTD/svg11.dtd">
<svg width="100%" height="100%" viewBox="0 0 347 481" version="1.1" xmlns="http://www.w3.org/2000/svg" xmlns:xlink="http://www.w3.org/1999/xlink" xml:space="preserve" xmlns:serif="http://www.serif.com/" style="fill-rule:evenodd;clip-rule:evenodd;stroke-linejoin:round;stroke-miterlimit:2;">
    <g>
        <rect x="0" y="0.526" width="346.005" height="479.615" style="fill:none;fill-rule:nonzero;"/>
    </g>
    <g transform="matrix(1,0,0,1,53.1629,407.172)">
        <g>
            <g>
                <path d="M1.771,-32.021C2.729,-32.021 3.49,-32.005 4.063,-31.979C4.646,-31.964 5.135,-31.943 5.542,-31.917C5.958,-31.885 6.339,-31.865 6.688,-31.854C7.047,-31.839 7.5,-31.833 8.042,-31.833C8.552,-31.833 8.99,-31.839 9.354,-31.854C9.714,-31.865 10.104,-31.885 10.521,-31.917C10.938,-31.943 11.427,-31.964 12,-31.979C12.583,-32.005 13.354,-32.021 14.313,-32.021L14.313,-31.542C13.797,-31.542 13.302,-31.5 12.833,-31.417C12.375,-31.333 11.969,-31.177 11.625,-30.958C11.276,-30.734 11,-30.422 10.792,-30.021C10.583,-29.63 10.479,-29.094 10.479,-28.417L10.479,-3.583C10.479,-2.917 10.583,-2.38 10.792,-1.979C11,-1.589 11.276,-1.276 11.625,-1.042C11.969,-0.818 12.375,-0.667 12.833,-0.583C13.302,-0.51 13.797,-0.479 14.313,-0.479L14.313,0C13.354,0 12.583,-0.005 12,-0.021C11.427,-0.031 10.938,-0.052 10.521,-0.083C10.104,-0.125 9.714,-0.151 9.354,-0.167C8.99,-0.177 8.552,-0.187 8.042,-0.187C7.5,-0.187 7.047,-0.177 6.688,-0.167C6.339,-0.151 5.958,-0.125 5.542,-0.083C5.135,-0.052 4.646,-0.031 4.063,-0.021C3.49,-0.005 2.729,0 1.771,0L1.771,-0.479C2.281,-0.479 2.771,-0.51 3.229,-0.583C3.688,-0.667 4.089,-0.818 4.438,-1.042C4.797,-1.276 5.083,-1.589 5.292,-1.979C5.5,-2.38 5.604,-2.917 5.604,-3.583L5.604,-28.417C5.604,-29.094 5.5,-29.63 5.292,-30.021C5.083,-30.422 4.797,-30.734 4.438,-30.958C4.089,-31.177 3.688,-31.333 3.229,-31.417C2.771,-31.5 2.281,-31.542 1.771,-31.542L1.771,-32.021Z" style="fill:rgb(203,199,183);fill-rule:nonzero;"/>
            </g>
        </g>
    </g>
    <g transform="matrix(1,0,0,1,69.2446,407.172)">
        <g>
            <g>
                <path d="M2.25,-0.479C2.76,-0.479 3.25,-0.51 3.708,-0.583C4.167,-0.667 4.568,-0.818 4.917,-1.042C5.276,-1.276 5.563,-1.589 5.771,-1.979C5.979,-2.38 6.083,-2.917 6.083,-3.583L6.083,-28.187L5.021,-29.521C4.573,-30.104 4.089,-30.583 3.563,-30.958C3.031,-31.344 2.359,-31.542 1.542,-31.542L1.542,-32.021C2.109,-32.021 2.604,-32.005 3.021,-31.979C3.438,-31.964 3.813,-31.948 4.146,-31.937C4.479,-31.922 4.776,-31.906 5.042,-31.896C5.318,-31.88 5.63,-31.875 5.979,-31.875C6.297,-31.875 6.568,-31.88 6.792,-31.896C7.01,-31.906 7.234,-31.922 7.458,-31.937C7.677,-31.948 7.917,-31.964 8.167,-31.979C8.427,-32.005 8.755,-32.021 9.146,-32.021L29.042,-7.521L29.042,-28.417C29.042,-29.094 28.938,-29.63 28.729,-30.021C28.521,-30.422 28.24,-30.734 27.896,-30.958C27.547,-31.177 27.135,-31.333 26.667,-31.417C26.208,-31.5 25.729,-31.542 25.229,-31.542L25.229,-32.021C25.854,-32.021 26.359,-32.005 26.75,-31.979C27.135,-31.964 27.469,-31.948 27.75,-31.937C28.042,-31.922 28.313,-31.906 28.563,-31.896C28.823,-31.88 29.13,-31.875 29.479,-31.875C29.823,-31.875 30.125,-31.88 30.375,-31.896C30.635,-31.906 30.906,-31.922 31.188,-31.937C31.479,-31.948 31.823,-31.964 32.229,-31.979C32.63,-32.005 33.151,-32.021 33.792,-32.021L33.792,-31.542C33.276,-31.542 32.781,-31.5 32.313,-31.417C31.854,-31.333 31.448,-31.177 31.104,-30.958C30.755,-30.734 30.479,-30.422 30.271,-30.021C30.063,-29.63 29.958,-29.094 29.958,-28.417L29.958,0.583L29.104,0.583L6.979,-27.125L6.979,-3.583C6.979,-2.917 7.083,-2.38 7.292,-1.979C7.5,-1.589 7.776,-1.276 8.125,-1.042C8.484,-0.818 8.896,-0.667 9.354,-0.583C9.813,-0.51 10.297,-0.479 10.813,-0.479L10.813,0C10.172,0 9.651,-0.005 9.25,-0.021C8.859,-0.031 8.521,-0.047 8.229,-0.062C7.938,-0.089 7.667,-0.109 7.417,-0.125C7.167,-0.135 6.859,-0.146 6.5,-0.146C6.151,-0.146 5.844,-0.135 5.583,-0.125C5.333,-0.109 5.063,-0.089 4.771,-0.062C4.49,-0.047 4.156,-0.031 3.771,-0.021C3.396,-0.005 2.885,0 2.25,0L2.25,-0.479Z" style="fill:rgb(203,199,183);fill-rule:nonzero;"/>
            </g>
        </g>
    </g>
    <g transform="matrix(1,0,0,1,104.567,407.172)">
        <g>
            <g>
                <path d="M8.521,-0.479C9.031,-0.479 9.521,-0.51 9.979,-0.583C10.438,-0.667 10.839,-0.818 11.188,-1.042C11.547,-1.276 11.833,-1.589 12.042,-1.979C12.25,-2.38 12.354,-2.917 12.354,-3.583L12.354,-31.104C10.531,-31.172 9.219,-31.219 8.417,-31.25C7.625,-31.276 7.146,-31.292 6.979,-31.292C5.104,-31.26 3.74,-30.677 2.896,-29.542C2.047,-28.417 1.563,-26.943 1.438,-25.125L0.958,-25.125L1.188,-32.104C1.922,-32.146 2.604,-32.167 3.229,-32.167L4.979,-32.167C6.255,-32.167 7.375,-32.146 8.333,-32.104C9.292,-32.073 10.146,-32.052 10.896,-32.042C11.646,-32.026 12.318,-32 12.917,-31.958C13.526,-31.927 14.13,-31.917 14.729,-31.917C15.339,-31.917 15.943,-31.927 16.542,-31.958C17.151,-32 17.839,-32.026 18.604,-32.042C19.38,-32.052 20.255,-32.073 21.229,-32.104C22.198,-32.146 23.354,-32.167 24.688,-32.167L26.5,-32.167C27.135,-32.167 27.823,-32.146 28.563,-32.104L28.854,-25.125L28.375,-25.125C28.318,-25.917 28.172,-26.687 27.938,-27.437C27.714,-28.187 27.38,-28.854 26.938,-29.437C26.49,-30.031 25.922,-30.505 25.229,-30.854C24.547,-31.214 23.729,-31.396 22.771,-31.396C22.615,-31.396 22.109,-31.365 21.25,-31.312C20.385,-31.271 19.047,-31.198 17.229,-31.104L17.229,-3.583C17.229,-2.917 17.333,-2.38 17.542,-1.979C17.75,-1.589 18.026,-1.276 18.375,-1.042C18.719,-0.818 19.125,-0.667 19.583,-0.583C20.052,-0.51 20.547,-0.479 21.063,-0.479L21.063,0C20.104,0 19.333,-0.005 18.75,-0.021C18.177,-0.031 17.688,-0.052 17.271,-0.083C16.854,-0.125 16.464,-0.151 16.104,-0.167C15.74,-0.177 15.302,-0.187 14.792,-0.187C14.25,-0.187 13.797,-0.177 13.438,-0.167C13.089,-0.151 12.708,-0.125 12.292,-0.083C11.875,-0.052 11.38,-0.031 10.813,-0.021C10.24,-0.005 9.479,0 8.521,0L8.521,-0.479Z" style="fill:rgb(203,199,183);fill-rule:nonzero;"/>
            </g>
        </g>
    </g>
    <g transform="matrix(1,0,0,1,134.385,407.172)">
        <g>
            <g>
                <path d="M13.729,-16.979C15.172,-16.979 16.234,-17.339 16.917,-18.062C17.594,-18.781 17.938,-19.797 17.938,-21.104L18.417,-21.104C18.417,-20.365 18.406,-19.755 18.396,-19.271C18.38,-18.797 18.365,-18.401 18.354,-18.083C18.339,-17.76 18.318,-17.49 18.292,-17.271C18.276,-17.047 18.271,-16.812 18.271,-16.562C18.271,-16.297 18.276,-16.062 18.292,-15.854C18.318,-15.656 18.339,-15.406 18.354,-15.104C18.365,-14.797 18.38,-14.406 18.396,-13.937C18.406,-13.479 18.417,-12.88 18.417,-12.146L17.938,-12.146C17.938,-13.396 17.594,-14.375 16.917,-15.083C16.234,-15.802 15.172,-16.167 13.729,-16.167L10.479,-16.167L10.479,-5.792C10.479,-4.635 10.583,-3.714 10.792,-3.021C11,-2.339 11.365,-1.833 11.896,-1.5C12.422,-1.167 13.115,-0.948 13.979,-0.854C14.839,-0.755 15.922,-0.708 17.229,-0.708C18.38,-0.708 19.458,-0.75 20.458,-0.833C21.458,-0.917 22.339,-1.146 23.104,-1.521C23.88,-1.906 24.51,-2.505 25,-3.312C25.5,-4.13 25.813,-5.26 25.938,-6.708L26.458,-6.708L26.083,0C24.635,0.026 23.359,0.047 22.25,0.063C21.135,0.089 19.927,0.104 18.625,0.104C15.901,0.104 13.708,0.063 12.042,-0.021C10.385,-0.104 9.052,-0.146 8.042,-0.146C7.526,-0.146 7.083,-0.135 6.708,-0.125C6.344,-0.109 5.958,-0.089 5.542,-0.062C5.135,-0.047 4.646,-0.031 4.063,-0.021C3.49,-0.005 2.729,0 1.771,0L1.771,-0.479C2.281,-0.479 2.771,-0.51 3.229,-0.583C3.688,-0.667 4.089,-0.818 4.438,-1.042C4.797,-1.276 5.083,-1.589 5.292,-1.979C5.5,-2.38 5.604,-2.917 5.604,-3.583L5.604,-28.417C5.604,-29.094 5.5,-29.63 5.292,-30.021C5.083,-30.422 4.797,-30.734 4.438,-30.958C4.089,-31.177 3.688,-31.333 3.229,-31.417C2.771,-31.5 2.281,-31.542 1.771,-31.542L1.771,-32.021C2.729,-32.021 3.484,-32.005 4.042,-31.979C4.594,-31.964 5.073,-31.948 5.479,-31.937C5.88,-31.922 6.255,-31.906 6.604,-31.896C6.948,-31.88 7.38,-31.875 7.896,-31.875C8.979,-31.875 10.292,-31.922 11.833,-32.021C13.385,-32.115 15.125,-32.167 17.042,-32.167C18.276,-32.167 19.396,-32.146 20.396,-32.104C21.406,-32.073 22.552,-32.047 23.833,-32.021L24.125,-25.792L23.646,-25.792C23.547,-27 23.292,-27.969 22.875,-28.708C22.458,-29.443 21.896,-30 21.188,-30.375C20.49,-30.76 19.677,-31.021 18.75,-31.146C17.833,-31.281 16.813,-31.354 15.688,-31.354C15.406,-31.354 15.073,-31.339 14.688,-31.312C14.313,-31.297 13.927,-31.281 13.542,-31.271C13.151,-31.255 12.781,-31.229 12.438,-31.187C12.089,-31.156 11.802,-31.13 11.583,-31.104C10.844,-31.005 10.479,-30.573 10.479,-29.812L10.479,-16.979L13.729,-16.979Z" style="fill:rgb(203,199,183);fill-rule:nonzero;"/>
            </g>
        </g>
    </g>
    <g transform="matrix(1,0,0,1,162.049,407.172)">
        <g>
            <g>
                <path d="M1.771,-32.021C2.729,-32.021 3.49,-32.005 4.063,-31.979C4.646,-31.964 5.13,-31.958 5.521,-31.958C5.922,-31.958 6.297,-31.948 6.646,-31.937C7.005,-31.922 7.438,-31.917 7.938,-31.917C8.771,-31.917 9.734,-31.958 10.833,-32.042C11.943,-32.125 13.167,-32.167 14.5,-32.167C15.75,-32.167 17.047,-32.068 18.396,-31.875C19.755,-31.677 21,-31.292 22.125,-30.708C23.26,-30.135 24.198,-29.318 24.938,-28.25C25.672,-27.177 26.042,-25.771 26.042,-24.021C26.042,-22.839 25.797,-21.771 25.313,-20.812C24.839,-19.854 24.208,-19.021 23.417,-18.312C22.635,-17.615 21.74,-17.042 20.729,-16.583C19.729,-16.125 18.708,-15.812 17.667,-15.646C17.984,-15.229 18.542,-14.542 19.333,-13.583C20.125,-12.625 21.01,-11.547 22,-10.354C23,-9.156 24.031,-7.927 25.104,-6.667C26.172,-5.417 27.135,-4.292 28,-3.292C28.734,-2.469 29.427,-1.797 30.083,-1.271C30.734,-0.74 31.458,-0.479 32.25,-0.479L32.25,0C31.552,0 30.99,-0.005 30.563,-0.021C30.13,-0.031 29.771,-0.047 29.479,-0.062C29.188,-0.089 28.917,-0.109 28.667,-0.125C28.417,-0.135 28.094,-0.146 27.708,-0.146C27.318,-0.146 26.984,-0.135 26.708,-0.125C26.443,-0.109 26.193,-0.089 25.958,-0.062C25.719,-0.047 25.458,-0.031 25.167,-0.021C24.885,-0.005 24.521,0 24.063,0C23.073,-1.25 22.167,-2.422 21.333,-3.521C20.51,-4.615 19.698,-5.693 18.896,-6.75C18.104,-7.802 17.292,-8.865 16.458,-9.937C15.625,-11.005 14.734,-12.146 13.792,-13.354C13.302,-13.964 12.885,-14.385 12.542,-14.625C12.193,-14.859 11.651,-14.979 10.917,-14.979L10.479,-14.979L10.479,-3.583C10.479,-2.917 10.583,-2.38 10.792,-1.979C11,-1.589 11.276,-1.276 11.625,-1.042C11.969,-0.818 12.375,-0.667 12.833,-0.583C13.302,-0.51 13.797,-0.479 14.313,-0.479L14.313,0C13.354,0 12.583,-0.005 12,-0.021C11.427,-0.031 10.938,-0.052 10.521,-0.083C10.104,-0.125 9.714,-0.151 9.354,-0.167C8.99,-0.177 8.552,-0.187 8.042,-0.187C7.5,-0.187 7.047,-0.177 6.688,-0.167C6.339,-0.151 5.958,-0.125 5.542,-0.083C5.135,-0.052 4.646,-0.031 4.063,-0.021C3.49,-0.005 2.729,0 1.771,0L1.771,-0.479C2.281,-0.479 2.771,-0.51 3.229,-0.583C3.688,-0.667 4.089,-0.818 4.438,-1.042C4.797,-1.276 5.083,-1.589 5.292,-1.979C5.5,-2.38 5.604,-2.917 5.604,-3.583L5.604,-28.417C5.604,-29.094 5.5,-29.63 5.292,-30.021C5.083,-30.422 4.797,-30.734 4.438,-30.958C4.089,-31.177 3.688,-31.333 3.229,-31.417C2.771,-31.5 2.281,-31.542 1.771,-31.542L1.771,-32.021ZM10.479,-15.833L12.875,-15.833C15.458,-15.833 17.385,-16.531 18.667,-17.937C19.943,-19.339 20.583,-21.401 20.583,-24.125C20.583,-25.109 20.422,-26.031 20.104,-26.896C19.781,-27.755 19.318,-28.51 18.708,-29.167C18.094,-29.818 17.344,-30.333 16.458,-30.708C15.568,-31.094 14.563,-31.292 13.438,-31.292C13.188,-31.292 12.885,-31.281 12.542,-31.271C12.193,-31.255 11.865,-31.187 11.563,-31.062C11.255,-30.937 11,-30.75 10.792,-30.5C10.583,-30.26 10.479,-29.937 10.479,-29.521L10.479,-15.833Z" style="fill:rgb(203,199,183);fill-rule:nonzero;"/>
            </g>
        </g>
    </g>
    <g transform="matrix(1,0,0,1,193.83,407.172)">
        <g>
            <g>
                <path d="M1.771,-32.021C2.729,-32.021 3.49,-32.005 4.063,-31.979C4.646,-31.964 5.135,-31.943 5.542,-31.917C5.958,-31.885 6.339,-31.865 6.688,-31.854C7.047,-31.839 7.5,-31.833 8.042,-31.833C8.552,-31.833 8.99,-31.839 9.354,-31.854C9.714,-31.865 10.104,-31.885 10.521,-31.917C10.938,-31.943 11.427,-31.964 12,-31.979C12.583,-32.005 13.354,-32.021 14.313,-32.021L14.313,-31.542C13.797,-31.542 13.302,-31.5 12.833,-31.417C12.375,-31.333 11.969,-31.177 11.625,-30.958C11.276,-30.734 11,-30.422 10.792,-30.021C10.583,-29.63 10.479,-29.094 10.479,-28.417L10.479,-3.583C10.479,-2.917 10.583,-2.38 10.792,-1.979C11,-1.589 11.276,-1.276 11.625,-1.042C11.969,-0.818 12.375,-0.667 12.833,-0.583C13.302,-0.51 13.797,-0.479 14.313,-0.479L14.313,0C13.354,0 12.583,-0.005 12,-0.021C11.427,-0.031 10.938,-0.052 10.521,-0.083C10.104,-0.125 9.714,-0.151 9.354,-0.167C8.99,-0.177 8.552,-0.187 8.042,-0.187C7.5,-0.187 7.047,-0.177 6.688,-0.167C6.339,-0.151 5.958,-0.125 5.542,-0.083C5.135,-0.052 4.646,-0.031 4.063,-0.021C3.49,-0.005 2.729,0 1.771,0L1.771,-0.479C2.281,-0.479 2.771,-0.51 3.229,-0.583C3.688,-0.667 4.089,-0.818 4.438,-1.042C4.797,-1.276 5.083,-1.589 5.292,-1.979C5.5,-2.38 5.604,-2.917 5.604,-3.583L5.604,-28.417C5.604,-29.094 5.5,-29.63 5.292,-30.021C5.083,-30.422 4.797,-30.734 4.438,-30.958C4.089,-31.177 3.688,-31.333 3.229,-31.417C2.771,-31.5 2.281,-31.542 1.771,-31.542L1.771,-32.021Z" style="fill:rgb(203,199,183);fill-rule:nonzero;"/>
            </g>
        </g>
    </g>
    <g transform="matrix(1,0,0,1,209.912,407.172)">
        <g>
            <g>
                <path d="M19.229,-32.583C21.531,-32.583 23.708,-32.193 25.75,-31.417C27.792,-30.635 29.589,-29.521 31.146,-28.062C32.714,-26.615 33.948,-24.859 34.854,-22.792C35.771,-20.734 36.229,-18.448 36.229,-15.937C36.229,-13.354 35.771,-11.042 34.854,-9C33.948,-6.958 32.719,-5.214 31.167,-3.771C29.625,-2.339 27.823,-1.24 25.771,-0.479C23.714,0.281 21.531,0.667 19.229,0.667C16.781,0.667 14.521,0.276 12.438,-0.5C10.365,-1.276 8.563,-2.385 7.021,-3.833C5.49,-5.292 4.297,-7.047 3.438,-9.104C2.573,-11.172 2.146,-13.479 2.146,-16.021C2.146,-18.448 2.573,-20.677 3.438,-22.708C4.297,-24.734 5.484,-26.479 7,-27.937C8.526,-29.406 10.333,-30.547 12.417,-31.354C14.51,-32.172 16.781,-32.583 19.229,-32.583ZM19.229,-31.771C17.354,-31.771 15.688,-31.333 14.229,-30.458C12.781,-29.583 11.573,-28.406 10.604,-26.937C9.63,-25.479 8.896,-23.792 8.396,-21.875C7.906,-19.958 7.667,-17.979 7.667,-15.937C7.667,-13.771 7.906,-11.729 8.396,-9.812C8.896,-7.896 9.63,-6.229 10.604,-4.812C11.573,-3.396 12.781,-2.271 14.229,-1.437C15.688,-0.604 17.354,-0.187 19.229,-0.187C21.021,-0.187 22.625,-0.589 24.042,-1.396C25.458,-2.214 26.656,-3.323 27.646,-4.729C28.646,-6.13 29.406,-7.797 29.938,-9.729C30.464,-11.656 30.729,-13.729 30.729,-15.937C30.729,-18.104 30.464,-20.151 29.938,-22.083C29.406,-24.01 28.646,-25.693 27.646,-27.125C26.656,-28.568 25.458,-29.698 24.042,-30.521C22.625,-31.354 21.021,-31.771 19.229,-31.771Z" style="fill:rgb(203,199,183);fill-rule:nonzero;"/>
            </g>
        </g>
    </g>
    <g transform="matrix(1,0,0,1,248.297,407.172)">
        <g>
            <g>
                <path d="M1.771,-32.021C2.729,-32.021 3.49,-32.005 4.063,-31.979C4.646,-31.964 5.13,-31.958 5.521,-31.958C5.922,-31.958 6.297,-31.948 6.646,-31.937C7.005,-31.922 7.438,-31.917 7.938,-31.917C8.771,-31.917 9.734,-31.958 10.833,-32.042C11.943,-32.125 13.167,-32.167 14.5,-32.167C15.75,-32.167 17.047,-32.068 18.396,-31.875C19.755,-31.677 21,-31.292 22.125,-30.708C23.26,-30.135 24.198,-29.318 24.938,-28.25C25.672,-27.177 26.042,-25.771 26.042,-24.021C26.042,-22.839 25.797,-21.771 25.313,-20.812C24.839,-19.854 24.208,-19.021 23.417,-18.312C22.635,-17.615 21.74,-17.042 20.729,-16.583C19.729,-16.125 18.708,-15.812 17.667,-15.646C17.984,-15.229 18.542,-14.542 19.333,-13.583C20.125,-12.625 21.01,-11.547 22,-10.354C23,-9.156 24.031,-7.927 25.104,-6.667C26.172,-5.417 27.135,-4.292 28,-3.292C28.734,-2.469 29.427,-1.797 30.083,-1.271C30.734,-0.74 31.458,-0.479 32.25,-0.479L32.25,0C31.552,0 30.99,-0.005 30.563,-0.021C30.13,-0.031 29.771,-0.047 29.479,-0.062C29.188,-0.089 28.917,-0.109 28.667,-0.125C28.417,-0.135 28.094,-0.146 27.708,-0.146C27.318,-0.146 26.984,-0.135 26.708,-0.125C26.443,-0.109 26.193,-0.089 25.958,-0.062C25.719,-0.047 25.458,-0.031 25.167,-0.021C24.885,-0.005 24.521,0 24.063,0C23.073,-1.25 22.167,-2.422 21.333,-3.521C20.51,-4.615 19.698,-5.693 18.896,-6.75C18.104,-7.802 17.292,-8.865 16.458,-9.937C15.625,-11.005 14.734,-12.146 13.792,-13.354C13.302,-13.964 12.885,-14.385 12.542,-14.625C12.193,-14.859 11.651,-14.979 10.917,-14.979L10.479,-14.979L10.479,-3.583C10.479,-2.917 10.583,-2.38 10.792,-1.979C11,-1.589 11.276,-1.276 11.625,-1.042C11.969,-0.818 12.375,-0.667 12.833,-0.583C13.302,-0.51 13.797,-0.479 14.313,-0.479L14.313,0C13.354,0 12.583,-0.005 12,-0.021C11.427,-0.031 10.938,-0.052 10.521,-0.083C10.104,-0.125 9.714,-0.151 9.354,-0.167C8.99,-0.177 8.552,-0.187 8.042,-0.187C7.5,-0.187 7.047,-0.177 6.688,-0.167C6.339,-0.151 5.958,-0.125 5.542,-0.083C5.135,-0.052 4.646,-0.031 4.063,-0.021C3.49,-0.005 2.729,0 1.771,0L1.771,-0.479C2.281,-0.479 2.771,-0.51 3.229,-0.583C3.688,-0.667 4.089,-0.818 4.438,-1.042C4.797,-1.276 5.083,-1.589 5.292,-1.979C5.5,-2.38 5.604,-2.917 5.604,-3.583L5.604,-28.417C5.604,-29.094 5.5,-29.63 5.292,-30.021C5.083,-30.422 4.797,-30.734 4.438,-30.958C4.089,-31.177 3.688,-31.333 3.229,-31.417C2.771,-31.5 2.281,-31.542 1.771,-31.542L1.771,-32.021ZM10.479,-15.833L12.875,-15.833C15.458,-15.833 17.385,-16.531 18.667,-17.937C19.943,-19.339 20.583,-21.401 20.583,-24.125C20.583,-25.109 20.422,-26.031 20.104,-26.896C19.781,-27.755 19.318,-28.51 18.708,-29.167C18.094,-29.818 17.344,-30.333 16.458,-30.708C15.568,-31.094 14.563,-31.292 13.438,-31.292C13.188,-31.292 12.885,-31.281 12.542,-31.271C12.193,-31.255 11.865,-31.187 11.563,-31.062C11.255,-30.937 11,-30.75 10.792,-30.5C10.583,-30.26 10.479,-29.937 10.479,-29.521L10.479,-15.833Z" style="fill:rgb(203,199,183);fill-rule:nonzero;"/>
            </g>
        </g>
    </g>
    <g transform="matrix(1,0,0,1,280.077,407.172)">
        <g>
            <g>
                <path d="M20.042,-31.958C20.042,-31.417 20.031,-30.844 20.021,-30.25C20.005,-29.667 20,-29.089 20,-28.521C20,-27.906 20.042,-27.219 20.125,-26.458C20.208,-25.693 20.25,-24.979 20.25,-24.312L19.667,-24.312C19.568,-25.229 19.313,-26.13 18.896,-27.021C18.479,-27.922 17.943,-28.729 17.292,-29.437C16.635,-30.156 15.875,-30.734 15,-31.167C14.125,-31.609 13.156,-31.833 12.104,-31.833C11.271,-31.833 10.49,-31.672 9.771,-31.354C9.063,-31.031 8.448,-30.609 7.938,-30.083C7.438,-29.552 7.042,-28.922 6.75,-28.187C6.458,-27.448 6.313,-26.687 6.313,-25.896C6.313,-24.714 6.609,-23.729 7.208,-22.937C7.818,-22.156 8.589,-21.5 9.521,-20.958C10.448,-20.417 11.458,-19.927 12.542,-19.5C13.625,-19.068 14.646,-18.615 15.604,-18.146C16.589,-17.63 17.521,-17.083 18.396,-16.5C19.271,-15.927 20.026,-15.276 20.667,-14.542C21.302,-13.802 21.813,-12.948 22.188,-11.979C22.573,-11.005 22.771,-9.854 22.771,-8.521C22.771,-7.172 22.5,-5.943 21.958,-4.833C21.417,-3.719 20.667,-2.76 19.708,-1.958C18.75,-1.167 17.615,-0.542 16.313,-0.083C15.005,0.359 13.573,0.583 12.021,0.583C10.422,0.583 8.99,0.318 7.729,-0.208C6.464,-0.734 5.214,-1.417 3.979,-2.25L2.875,-0.375L2.396,-0.375C2.396,-1.375 2.406,-2.156 2.438,-2.729C2.464,-3.297 2.479,-3.901 2.479,-4.542C2.479,-5.208 2.464,-5.927 2.438,-6.708C2.406,-7.5 2.396,-8.406 2.396,-9.437L2.958,-9.437C3.026,-8.214 3.276,-7.052 3.708,-5.958C4.135,-4.859 4.729,-3.896 5.479,-3.062C6.229,-2.229 7.13,-1.552 8.188,-1.042C9.24,-0.542 10.438,-0.292 11.771,-0.292C12.755,-0.292 13.688,-0.448 14.563,-0.771C15.448,-1.089 16.219,-1.542 16.875,-2.125C17.526,-2.719 18.031,-3.417 18.396,-4.208C18.771,-5.01 18.958,-5.885 18.958,-6.833C18.958,-7.833 18.714,-8.714 18.229,-9.479C17.755,-10.24 17.146,-10.917 16.396,-11.5C15.646,-12.094 14.802,-12.625 13.875,-13.083C12.958,-13.552 12.063,-13.99 11.188,-14.396C10.172,-14.88 9.172,-15.406 8.188,-15.979C7.198,-16.562 6.313,-17.234 5.521,-18C4.74,-18.76 4.109,-19.646 3.625,-20.646C3.151,-21.656 2.917,-22.844 2.917,-24.208C2.917,-25.359 3.156,-26.443 3.646,-27.458C4.146,-28.484 4.813,-29.38 5.646,-30.146C6.479,-30.906 7.438,-31.51 8.521,-31.958C9.604,-32.417 10.734,-32.646 11.917,-32.646C13.125,-32.646 14.281,-32.427 15.396,-32C16.521,-31.568 17.573,-30.948 18.563,-30.146L19.563,-31.958L20.042,-31.958Z" style="fill:rgb(203,199,183);fill-rule:nonzero;"/>
            </g>
        </g>
    </g>
    <g transform="matrix(1,0,0,1,88.1972,299.825)">
        <g>
            <g>
                <path d="M99.521,-158.646C99.521,-155.948 99.479,-153.135 99.396,-150.208C99.313,-147.292 99.271,-144.401 99.271,-141.542C99.271,-138.542 99.464,-135.135 99.854,-131.333C100.255,-127.542 100.458,-123.979 100.458,-120.646L97.604,-120.646C97.13,-125.24 95.865,-129.755 93.813,-134.187C91.755,-138.615 89.104,-142.609 85.854,-146.167C82.604,-149.734 78.797,-152.589 74.438,-154.729C70.089,-156.865 65.302,-157.937 60.083,-157.937C55.969,-157.937 52.13,-157.146 48.563,-155.562C45.005,-153.979 41.958,-151.88 39.417,-149.271C36.885,-146.656 34.906,-143.526 33.479,-139.875C32.063,-136.234 31.354,-132.437 31.354,-128.479C31.354,-122.63 32.854,-117.76 35.854,-113.875C38.865,-110 42.667,-106.714 47.25,-104.021C51.844,-101.323 56.833,-98.906 62.208,-96.771C67.594,-94.646 72.667,-92.396 77.417,-90.021C82.333,-87.479 86.964,-84.781 91.313,-81.937C95.672,-79.089 99.438,-75.839 102.604,-72.187C105.771,-68.547 108.297,-64.312 110.188,-59.479C112.089,-54.656 113.042,-48.922 113.042,-42.271C113.042,-35.615 111.693,-29.521 109,-23.979C106.318,-18.437 102.604,-13.687 97.854,-9.729C93.104,-5.771 87.479,-2.677 80.979,-0.458C74.49,1.75 67.365,2.854 59.604,2.854C51.688,2.854 44.604,1.547 38.354,-1.062C32.104,-3.672 25.885,-7.042 19.708,-11.167L14.25,-1.896L11.875,-1.896C11.875,-6.812 11.948,-10.693 12.104,-13.542C12.271,-16.385 12.354,-19.396 12.354,-22.562C12.354,-25.88 12.271,-29.479 12.104,-33.354C11.948,-37.24 11.875,-41.719 11.875,-46.792L14.729,-46.792C15.047,-40.776 16.271,-35.031 18.396,-29.562C20.531,-24.104 23.464,-19.312 27.188,-15.187C30.906,-11.073 35.38,-7.75 40.604,-5.208C45.839,-2.677 51.776,-1.417 58.417,-1.417C63.333,-1.417 67.964,-2.208 72.313,-3.792C76.672,-5.375 80.469,-7.63 83.708,-10.562C86.958,-13.49 89.49,-16.937 91.313,-20.896C93.13,-24.854 94.042,-29.208 94.042,-33.958C94.042,-38.875 92.854,-43.229 90.479,-47.021C88.104,-50.823 85.052,-54.193 81.333,-57.125C77.625,-60.052 73.469,-62.667 68.875,-64.958C64.276,-67.25 59.844,-69.422 55.583,-71.479C50.51,-73.854 45.521,-76.464 40.604,-79.312C35.698,-82.172 31.302,-85.5 27.417,-89.292C23.542,-93.094 20.417,-97.49 18.042,-102.479C15.667,-107.464 14.479,-113.359 14.479,-120.167C14.479,-125.875 15.708,-131.255 18.167,-136.312C20.625,-141.38 23.906,-145.818 28.021,-149.625C32.146,-153.427 36.896,-156.437 42.271,-158.646C47.656,-160.865 53.281,-161.979 59.146,-161.979C65.156,-161.979 70.938,-160.906 76.479,-158.771C82.021,-156.63 87.24,-153.583 92.146,-149.625L97.146,-158.646L99.521,-158.646Z" style="fill:rgb(203,199,183);fill-rule:nonzero;"/>
            </g>
        </g>
    </g>
    <g transform="matrix(1,0,0,1,123.133,346.095)">
        <g>
            <g>
                <path d="M128.938,-35.375C128.938,-31.833 128.964,-27.927 129.021,-23.667C129.089,-19.417 129.255,-15.984 129.521,-13.375C124.938,-12.969 120.646,-11.917 116.646,-10.208C112.646,-8.51 108.51,-6.714 104.25,-4.812C100,-2.906 95.38,-1.208 90.396,0.292C85.422,1.802 79.729,2.563 73.313,2.563C63.74,2.563 55.026,0.958 47.167,-2.25C39.302,-5.469 32.521,-10.026 26.813,-15.917C21.115,-21.818 16.698,-28.859 13.563,-37.042C10.422,-45.234 8.854,-54.312 8.854,-64.271C8.854,-74.089 10.615,-83.255 14.146,-91.771C17.688,-100.297 22.568,-107.635 28.792,-113.792C35.01,-119.958 42.318,-124.802 50.708,-128.333C59.094,-131.875 68.198,-133.646 78.021,-133.646C85.365,-133.646 92.25,-132.562 98.667,-130.396C105.083,-128.24 111.172,-125.26 116.938,-121.458L121.667,-128.542L123.625,-128.542C123.5,-126.177 123.333,-124.177 123.125,-122.542C122.927,-120.901 122.76,-119.422 122.625,-118.104C122.5,-116.797 122.375,-115.552 122.25,-114.375C122.125,-113.208 122.063,-111.901 122.063,-110.458L122.063,-106.229C122.063,-105.115 122.089,-103.937 122.146,-102.687C122.214,-101.448 122.25,-99.906 122.25,-98.062L122.25,-90.604L119.896,-90.604C119.365,-102.656 115.401,-112.292 108,-119.5C100.594,-126.708 90.469,-130.312 77.625,-130.312C72.125,-130.312 66.625,-128.901 61.125,-126.083C55.625,-123.26 50.677,-119.068 46.292,-113.5C41.901,-107.927 38.323,-100.984 35.563,-92.667C32.813,-84.344 31.438,-74.615 31.438,-63.479C31.438,-59.422 31.698,-55.068 32.229,-50.417C32.755,-45.76 33.672,-41.109 34.979,-36.458C36.297,-31.802 38.031,-27.344 40.188,-23.083C42.354,-18.833 45.042,-15.068 48.25,-11.792C51.458,-8.51 55.219,-5.885 59.542,-3.917C63.875,-1.958 68.854,-0.979 74.479,-0.979C78.547,-0.979 82.609,-1.568 86.667,-2.75C90.734,-3.927 94.406,-5.797 97.688,-8.354C100.964,-10.906 103.646,-14.115 105.729,-17.979C107.823,-21.854 108.875,-26.542 108.875,-32.042C108.875,-38.458 107.563,-43.042 104.938,-45.792C102.323,-48.542 97.484,-49.917 90.417,-49.917L90.417,-51.896C94.344,-51.896 97.589,-51.859 100.146,-51.792C102.698,-51.719 104.958,-51.615 106.917,-51.479C108.885,-51.354 110.719,-51.255 112.417,-51.187C114.125,-51.13 116.089,-51.104 118.313,-51.104C120.406,-51.104 122.24,-51.13 123.813,-51.187C125.396,-51.255 127.068,-51.354 128.833,-51.479C130.594,-51.615 132.688,-51.719 135.104,-51.792C137.531,-51.859 140.714,-51.896 144.646,-51.896L144.646,-49.917C139.021,-49.917 134.99,-48.964 132.563,-47.062C130.146,-45.172 128.938,-41.276 128.938,-35.375Z" style="fill:rgb(203,199,183);fill-rule:nonzero;"/>
            </g>
        </g>
    </g>
</svg>
